<?xml version="1.0" standalone="no"?>
<!DOCTYPE svg PUBLIC "-//W3C//DTD SVG 20010904//EN"
 "http://www.w3.org/TR/2001/REC-SVG-20010904/DTD/svg10.dtd">
<svg version="1.0" xmlns="http://www.w3.org/2000/svg"
 width="512.000000pt" height="512.000000pt" viewBox="0 0 512.000000 512.000000"
 preserveAspectRatio="xMidYMid meet">
  <rect width="100%" height="100%" fill="#646d40"/>
<metadata>
Created by potrace 1.16, written by Peter Selinger 2001-2019
</metadata>
<g transform="translate(0.000000,512.000000) scale(0.074419,-0.074419)"
fill="#ffffff" stroke="none">
<path d="M0 3440 l0 -3440 3440 0 3440 0 0 3440 0 3440 -3440 0 -3440 0 0
-3440z m5528 1654 c12 -8 22 -21 22 -29 0 -21 -221 -678 -233 -693 -6 -7 -20
-12 -31 -10 -32 5 -31 51 4 188 48 190 160 534 178 548 21 16 33 15 60 -4z
m-625 -118 c51 -22 79 -59 84 -113 8 -79 -25 -132 -66 -106 -12 8 -15 23 -13
60 4 60 -13 83 -64 83 -56 0 -124 -39 -200 -115 -157 -158 -274 -426 -274
-629 0 -91 18 -141 61 -165 60 -33 177 31 284 156 65 76 140 195 133 211 -1 5
-64 -6 -138 -25 -74 -18 -143 -30 -152 -27 -27 8 -33 44 -10 66 23 23 230 77
395 103 113 18 147 12 147 -24 0 -27 -21 -40 -74 -47 -31 -5 -49 -13 -53 -23
-47 -155 -233 -389 -358 -450 -102 -50 -196 -43 -261 20 -52 51 -69 106 -69
229 1 130 25 220 100 377 65 136 98 185 189 280 123 130 244 180 339 139z
m-1142 -35 l23 -19 -47 -148 c-61 -196 -98 -334 -147 -551 -54 -240 -69 -290
-101 -324 -33 -35 -84 -39 -122 -9 -67 53 -107 300 -107 660 0 95 -4 170 -8
165 -41 -46 -193 -520 -237 -738 -20 -98 -37 -118 -81 -98 -31 14 -31 44 1
185 67 296 219 711 287 783 23 24 66 30 98 13 33 -18 40 -66 40 -284 0 -278
28 -568 59 -599 9 -9 27 55 86 308 35 148 150 566 174 627 9 23 34 47 52 48 4
0 17 -8 30 -19z m445 0 c5 -6 43 -6 96 0 109 12 200 8 206 -8 3 -10 -17 -14
-75 -15 l-78 -2 88 -5 c48 -3 87 -10 88 -16 0 -5 -11 -11 -23 -13 -116 -13
-266 -36 -279 -43 -9 -4 -21 -25 -27 -46 -5 -21 -40 -140 -76 -265 -69 -238
-130 -478 -142 -563 -3 -27 -11 -56 -16 -62 -16 -21 -46 -15 -63 11 -14 21
-15 36 -5 108 16 125 96 445 172 691 16 54 28 100 26 102 -1 2 -55 -11 -118
-28 -135 -36 -188 -40 -204 -14 -16 25 3 49 50 65 21 7 99 28 173 47 83 21
138 40 143 50 10 17 49 20 64 6z m1995 -650 c35 -35 37 -77 13 -214 -55 -318
-260 -767 -492 -1080 -98 -131 -248 -304 -270 -312 -11 -3 -55 6 -98 21 -70
23 -90 26 -177 22 -90 -5 -104 -8 -181 -46 -147 -73 -247 -202 -279 -360 -7
-34 -19 -68 -27 -75 -16 -15 -158 -48 -307 -71 -151 -24 -371 -38 -531 -35
l-150 4 -7 -42 c-9 -63 -59 -154 -115 -211 -200 -203 -541 -151 -665 101 -57
117 -63 256 -15 365 16 36 18 47 8 53 -61 34 -210 151 -291 228 -255 245 -430
527 -526 850 -41 136 -41 193 -2 232 17 17 40 29 55 29 13 0 81 -22 151 -50
261 -102 525 -168 847 -212 222 -30 784 -33 1003 -5 429 55 819 171 1200 356
252 122 507 279 682 418 89 71 129 79 174 34z m-836 -50 c7 -23 -28 -119 -56
-155 -27 -35 -76 -59 -105 -53 -13 2 -29 -2 -35 -9 -17 -21 -43 -18 -33 4 4 9
8 40 9 67 2 83 38 126 125 149 74 20 88 19 95 -3z m-3625 -1041 c8 -14 8 -26
0 -40 -10 -19 -22 -20 -333 -21 -177 -1 -331 -2 -342 -2 -45 0 -55 4 -61 28
-14 55 -13 55 372 55 343 0 354 -1 364 -20z m272 -316 c11 -23 10 -29 -11 -45
-22 -18 -51 -19 -658 -19 -392 0 -641 4 -652 10 -25 13 -33 37 -21 61 10 18
29 19 671 19 l659 0 12 -26z m3318 -301 c93 -32 174 -106 219 -203 23 -48 26
-68 26 -155 0 -93 -2 -105 -33 -167 -67 -137 -187 -211 -342 -212 -107 -1
-178 26 -253 94 -164 150 -164 406 0 561 106 101 242 130 383 82z m-3066 1
c19 -18 21 -45 4 -62 -9 -9 -145 -12 -550 -12 -527 0 -538 0 -548 20 -12 22 0
54 22 63 7 3 248 6 535 6 461 1 523 -1 537 -15z M3592 4523 c-23 -86 -37 -161
-30 -153 9 8 60 221 55 226 -2 3 -14 -30 -25 -73z M3977 4243 c-14 -59 -28
-128 -32 -153 -4 -25 -9 -54 -12 -65 -3 -11 -2 -17 1 -13 9 8 79 329 73 335
-3 2 -16 -44 -30 -104z M6050 4144 c-163 -133 -483 -326 -718 -433 -542 -248
-1065 -361 -1669 -361 -324 0 -595 28 -888 91 -128 28 -436 125 -563 177 l-52
22 6 -28 c3 -15 24 -80 45 -145 122 -372 382 -715 711 -939 l58 -39 54 41
c104 79 215 103 340 75 157 -34 277 -153 317 -310 l12 -47 261 5 c267 5 397
19 567 58 l87 20 7 45 c12 80 81 201 160 280 76 76 191 142 285 163 69 16 207
12 283 -8 l67 -17 72 85 c219 263 416 596 523 885 64 173 122 428 98 425 -5 0
-33 -21 -63 -45z M3209 2507 c-145 -40 -239 -159 -241 -306 -2 -78 13 -130 54
-191 115 -173 361 -189 499 -32 111 127 104 325 -17 445 -75 75 -199 110 -295
84z m151 -170 c75 -40 109 -133 76 -210 -47 -110 -191 -137 -273 -51 -36 38
-48 84 -40 146 7 54 33 88 87 116 56 28 96 28 150 -1z M3244 2258 c-22 -10
-44 -47 -44 -74 0 -9 14 -29 30 -46 26 -25 36 -29 62 -24 45 9 68 33 68 73 0
62 -59 99 -116 71z M5228 4150 c-37 -40 -47 -60 -29 -60 12 0 91 78 91 90 0
21 -24 9 -62 -30z M5071 2479 c-101 -50 -153 -137 -154 -254 0 -56 5 -81 27
-127 46 -97 143 -159 249 -159 170 0 291 120 291 286 0 218 -217 352 -413 254z
m214 -133 c37 -24 68 -98 60 -139 -22 -103 -115 -152 -210 -113 -38 16 -72 63
-81 114 -9 46 30 118 76 144 42 23 115 20 155 -6z M5157 2280 c-37 -29 -37
-80 -1 -109 15 -12 34 -21 44 -21 33 0 70 39 70 74 0 60 -66 93 -113 56z"/>
</g>
</svg>
