<?xml version="1.0" standalone="no"?>
<!DOCTYPE svg PUBLIC "-//W3C//DTD SVG 20010904//EN"
 "http://www.w3.org/TR/2001/REC-SVG-20010904/DTD/svg10.dtd">
<svg version="1.0" xmlns="http://www.w3.org/2000/svg"
 width="512.000000pt" height="512.000000pt" viewBox="0 0 512.000000 512.000000"
 preserveAspectRatio="xMidYMid meet">
  <rect width="100%" height="100%" fill="#616c3f"/>
<metadata>
Created by potrace 1.16, written by Peter Selinger 2001-2019
</metadata>
<g transform="translate(0.000000,512.000000) scale(0.072113,-0.072113)"
fill="#ffffff" stroke="none">
<path d="M0 3550 l0 -3550 3550 0 3550 0 0 3550 0 3550 -3550 0 -3550 0 0
-3550z m5054 2013 c4 -8 -3 -45 -14 -81 -11 -36 -19 -67 -17 -69 3 -2 44 3 92
12 111 19 159 19 175 0 20 -24 -3 -41 -64 -49 -30 -3 -95 -15 -145 -27 l-90
-21 -20 -61 c-69 -217 -121 -448 -124 -556 -2 -70 -4 -76 -25 -79 -36 -5 -56
54 -47 143 8 84 56 312 90 427 14 45 25 87 25 93 0 8 -26 5 -81 -12 -94 -27
-109 -28 -109 -9 0 27 57 62 138 87 l82 24 26 79 c15 44 37 90 50 103 24 24
48 22 58 -4z m-1490 -38 c3 -8 -35 -186 -84 -397 -130 -557 -146 -612 -194
-650 -42 -35 -101 -15 -131 42 -25 48 -73 313 -100 555 -15 127 -28 232 -30
234 -7 6 -55 -110 -101 -244 -58 -167 -108 -362 -131 -504 -19 -123 -32 -143
-71 -115 -28 19 -28 47 -1 195 55 308 188 699 263 774 32 32 75 33 104 2 23
-25 32 -62 52 -237 32 -277 84 -597 100 -613 9 -10 66 194 175 626 83 329 96
364 130 351 7 -3 16 -12 19 -19z m606 -124 c0 -10 -7 -37 -15 -60 -17 -49 -22
-48 118 -29 83 11 90 11 103 -7 19 -26 1 -45 -43 -45 -20 0 -75 -9 -124 -21
l-89 -21 -21 -66 c-11 -37 -40 -145 -65 -240 -46 -179 -55 -262 -30 -262 17 0
79 68 106 117 44 79 67 113 73 107 3 -4 9 7 13 22 4 16 19 76 34 133 26 106
42 130 75 117 14 -5 17 -15 13 -56 -3 -28 -4 -50 -3 -50 1 0 15 18 30 41 56
80 129 106 167 59 26 -32 21 -84 -9 -88 -17 -3 -24 3 -29 22 -8 35 -30 33 -65
-5 -59 -63 -105 -167 -161 -359 -14 -48 -37 -62 -65 -39 -12 11 -14 26 -9 74
l7 60 -37 -65 c-20 -36 -51 -80 -68 -98 -31 -33 -92 -57 -119 -46 -21 8 -40
67 -35 105 3 16 3 29 0 29 -2 0 -25 -22 -51 -50 -34 -36 -55 -50 -74 -50 -36
0 -64 30 -72 77 -4 21 -7 45 -9 53 -1 8 -14 -8 -29 -36 -35 -69 -88 -124 -119
-124 -34 0 -66 33 -74 76 -9 46 11 160 42 243 29 75 40 91 66 91 32 0 32 -28
0 -133 -38 -123 -52 -212 -31 -205 20 7 79 98 151 233 48 91 68 121 85 123 41
6 44 -24 13 -143 -29 -110 -38 -189 -22 -199 12 -7 50 36 102 113 33 48 50 88
71 170 15 58 34 133 43 165 9 33 15 61 13 62 -1 2 -39 -6 -84 -18 -89 -22
-113 -20 -113 11 0 26 7 30 124 61 l100 27 23 69 c13 38 31 74 39 81 21 16 54
0 54 -26z m544 13 c24 -24 19 -36 -31 -78 -19 -15 -25 -16 -38 -6 -23 19 -18
56 11 79 32 25 38 26 58 5z m450 -140 c18 -18 18 -17 10 -38 -10 -26 -43 -40
-60 -25 -19 16 -18 56 4 68 23 14 28 14 46 -5z m540 -46 c7 -11 3 -37 -12 -89
-12 -40 -20 -74 -18 -76 2 -2 19 22 37 54 72 126 137 166 176 107 16 -24 15
-33 -2 -155 -22 -159 -17 -171 48 -103 38 39 47 45 53 31 10 -26 -40 -102 -80
-121 -27 -13 -40 -14 -59 -5 -54 24 -60 102 -22 277 17 73 -77 -61 -156 -225
-50 -104 -68 -120 -97 -91 -17 17 -15 59 8 153 10 44 17 82 15 84 -3 2 -20 -8
-39 -23 -22 -16 -48 -53 -70 -99 -19 -41 -53 -92 -76 -115 -35 -37 -46 -42
-83 -42 -52 0 -82 27 -94 84 l-8 38 -48 -62 c-79 -101 -155 -114 -177 -28 -20
73 51 300 96 306 44 6 45 -18 8 -132 -21 -65 -34 -123 -32 -145 l3 -36 42 42
c46 47 183 247 183 268 0 21 63 83 93 90 62 16 114 -19 131 -89 l12 -48 34 28
c18 16 43 52 56 80 28 65 54 79 78 42z m-1024 -97 c0 -22 -13 -91 -29 -153
-16 -62 -35 -148 -42 -190 -14 -85 -30 -102 -63 -69 -19 19 -19 25 -8 108 15
108 68 302 89 326 9 9 24 17 35 17 14 0 18 -8 18 -39z m40 -280 c-10 -20 -30
-37 -30 -26 0 11 25 45 33 45 4 0 3 -9 -3 -19z m947 -217 c3 -8 -19 -90 -50
-182 -30 -92 -74 -229 -98 -305 -29 -91 -50 -142 -62 -148 -63 -34 -50 61 59
436 43 149 60 195 80 213 20 18 29 20 45 11 11 -5 23 -17 26 -25z m-889 -94
c33 -20 62 -71 62 -109 0 -32 -30 -99 -47 -105 -29 -12 -43 13 -40 72 2 51 0
57 -24 71 -25 14 -31 13 -70 -4 -230 -102 -440 -639 -306 -782 11 -13 30 -23
41 -23 39 0 106 42 163 104 58 62 154 226 133 226 -6 0 -57 -11 -112 -25 -105
-27 -128 -24 -128 16 0 29 35 45 175 77 214 51 275 53 275 12 0 -23 -13 -32
-64 -45 -35 -10 -40 -15 -61 -72 -28 -79 -120 -216 -185 -277 -142 -133 -286
-123 -348 25 -32 76 -27 226 13 349 71 223 228 435 365 494 50 22 119 20 158
-4z m-778 -165 c22 -26 5 -42 -46 -43 -37 -1 -354 -50 -360 -56 -1 0 -20 -59
-43 -131 -52 -167 -141 -514 -149 -585 -5 -42 -11 -56 -25 -58 -36 -7 -50 18
-43 80 10 96 55 299 107 480 27 95 49 176 49 180 0 15 -38 8 -174 -32 -75 -22
-145 -40 -155 -40 -28 0 -45 25 -32 49 12 22 52 35 261 87 75 19 140 41 146
49 12 16 49 20 58 7 3 -5 51 -1 108 9 135 22 281 25 298 4z m1186 -229 c30
-30 34 -40 34 -85 0 -54 5 -59 36 -36 10 8 25 15 32 15 21 0 1 -26 -45 -59
-24 -17 -43 -38 -43 -46 0 -26 -49 -114 -87 -156 -68 -75 -122 -87 -175 -40
-32 28 -33 32 -33 108 0 72 3 86 43 165 23 48 42 91 42 96 0 6 16 24 35 41 29
25 45 31 81 31 39 0 51 -5 80 -34z m1225 -47 c21 -21 21 -28 16 -133 -14 -263
-126 -616 -288 -911 -113 -205 -290 -453 -427 -597 l-53 -56 45 -45 c52 -53
109 -159 125 -235 36 -168 -15 -338 -139 -463 -76 -77 -144 -113 -255 -136
-99 -20 -178 -8 -279 40 -123 60 -207 154 -249 281 -11 33 -22 62 -23 64 -1 2
-53 -6 -115 -17 -353 -64 -802 -74 -1076 -25 -30 6 -32 4 -42 -33 -31 -110
-127 -220 -242 -277 -267 -132 -579 36 -630 340 -17 96 1 194 52 293 l39 75
-47 40 c-349 294 -615 709 -728 1142 -15 55 -29 131 -32 171 -5 67 -4 73 20
97 38 38 70 33 188 -28 505 -264 1067 -380 1749 -363 448 12 803 74 1230 217
358 119 670 281 969 503 115 85 152 96 192 56z m-2572 -54 c33 -17 61 -70 61
-115 0 -27 3 -32 20 -27 28 7 25 -7 -8 -40 -16 -15 -34 -47 -41 -70 -14 -50
-75 -143 -114 -174 -16 -12 -47 -24 -70 -26 -112 -13 -147 123 -73 282 13 28
33 71 44 98 35 77 112 108 181 72z m1629 -172 c2 -17 -4 -45 -13 -62 -17 -34
-59 -66 -74 -57 -5 4 -12 2 -16 -4 -15 -24 -24 -7 -20 39 5 63 19 89 58 107
46 19 62 14 65 -23z m-3713 -677 c17 -25 11 -53 -14 -73 -12 -9 -102 -12 -343
-13 -315 0 -329 1 -348 20 -24 24 -25 47 -3 72 15 17 39 18 354 18 l339 0 15
-24z m285 -389 c14 -27 14 -29 -13 -53 l-28 -24 -632 0 c-488 0 -638 3 -657
13 -28 14 -37 46 -20 77 11 20 13 20 673 18 l661 -3 16 -28z m292 -384 c25
-23 23 -59 -5 -78 -21 -13 -96 -15 -597 -13 l-574 3 -15 26 c-13 24 -13 29 2
53 l17 26 577 0 c522 0 578 -2 595 -17z M4820 4915 c-7 -36 -10 -68 -8 -70 3
-3 10 25 17 61 6 37 10 68 8 71 -3 2 -10 -26 -17 -62z M3401 5064 c-18 -75
-30 -138 -28 -141 3 -2 19 57 37 132 18 75 30 138 28 140 -2 3 -19 -56 -37
-131z M3967 4835 c-16 -73 -22 -144 -12 -133 7 6 36 200 32 205 -2 2 -11 -31
-20 -72z M5392 5147 c-26 -31 -33 -69 -17 -93 18 -28 69 -33 79 -8 10 27 7 89
-6 102 -16 16 -43 15 -56 -1z M5311 4989 c-14 -40 -14 -126 -1 -134 20 -13 49
7 84 58 43 63 45 77 8 77 -16 0 -37 7 -48 15 -27 20 -31 19 -43 -16z M4572
4850 c0 -19 2 -27 5 -17 2 9 2 25 0 35 -3 9 -5 1 -5 -18z M5481 4224 c0 -11 3
-14 6 -6 3 7 2 16 -1 19 -3 4 -6 -2 -5 -13z M3873 4353 c9 -2 25 -2 35 0 9 3
1 5 -18 5 -19 0 -27 -2 -17 -5z M3401 3833 c-27 -102 -41 -178 -40 -217 1 -18
6 -3 14 39 7 39 22 110 34 159 27 111 21 124 -8 19z M5071 4094 c-24 -31 -28
-86 -7 -103 8 -7 30 -11 48 -9 32 3 33 4 36 56 5 82 -35 110 -77 56z M4991
3938 c-28 -91 -25 -158 7 -158 23 0 84 64 110 115 l20 40 -38 0 c-22 0 -46 8
-57 18 -26 23 -30 22 -42 -15z M6255 3933 c-488 -372 -1147 -618 -1905 -710
-201 -24 -692 -24 -905 1 -448 52 -828 160 -1156 328 -57 29 -107 54 -111 56
-8 4 14 -95 49 -213 63 -216 201 -482 351 -675 82 -105 224 -253 313 -326 l67
-55 46 30 c162 102 387 71 531 -73 67 -67 122 -174 131 -257 l6 -57 47 -6
c295 -39 634 -33 970 15 190 28 191 28 191 79 0 22 9 69 21 103 83 249 351
391 595 316 l69 -21 61 64 c242 256 467 623 584 953 55 156 118 436 108 479
-2 11 -20 2 -63 -31z M5270 2386 c-152 -42 -256 -160 -282 -320 -27 -161 67
-332 220 -404 50 -23 70 -27 152 -27 111 1 163 19 234 85 192 177 175 469 -36
613 -87 60 -193 79 -288 53z m144 -177 c22 -6 56 -29 81 -53 145 -146 16 -380
-188 -342 -20 4 -55 24 -81 47 -122 108 -77 301 82 349 38 12 61 11 106 -1z
M5323 2095 c-88 -38 -64 -175 32 -175 76 0 115 96 63 154 -30 32 -56 38 -95
21z M3147 2310 c-133 -34 -247 -168 -263 -312 -9 -74 22 -176 71 -238 166
-206 456 -172 572 68 23 48 27 70 27 142 1 104 -28 174 -99 245 -80 80 -208
120 -308 95z m151 -174 c118 -62 135 -223 32 -309 -84 -71 -224 -36 -271 67
-56 123 29 256 164 256 26 0 60 -6 75 -14z M3193 2040 c-45 -18 -58 -93 -23
-125 11 -10 34 -18 51 -18 68 0 98 84 45 130 -29 25 -39 27 -73 13z M3759
3987 c-21 -16 -39 -51 -39 -75 0 -41 69 -69 98 -40 17 17 15 79 -4 106 -17 25
-31 27 -55 9z M3670 3824 c-15 -39 -23 -137 -12 -153 19 -27 59 -4 101 60 23
34 41 65 41 70 0 5 -15 9 -34 9 -19 0 -45 9 -60 21 l-26 20 -10 -27z M5402
3847 c-23 -24 -29 -47 -12 -47 10 0 44 59 37 66 -2 2 -13 -6 -25 -19z"/>
</g>
</svg>
