<?xml version="1.0" standalone="no"?>
<!DOCTYPE svg PUBLIC "-//W3C//DTD SVG 20010904//EN"
 "http://www.w3.org/TR/2001/REC-SVG-20010904/DTD/svg10.dtd">
<svg version="1.0" xmlns="http://www.w3.org/2000/svg"
 width="512.000000pt" height="512.000000pt" viewBox="0 0 512.000000 512.000000"
 preserveAspectRatio="xMidYMid meet">
  <rect width="100%" height="100%" fill="#fcfcfc"/>
<metadata>
Created by potrace 1.16, written by Peter Selinger 2001-2019
</metadata>
<g transform="translate(0.000000,512.000000) scale(0.074311,-0.074311)"
fill="#3d4726" stroke="none">
<path d="M0 3445 l0 -3445 3445 0 3445 0 0 3445 0 3445 -3445 0 -3445 0 0
-3445z m5484 1643 c8 -14 2 -42 -26 -125 -160 -476 -202 -592 -213 -597 -7 -2
-21 1 -31 8 -17 13 -17 17 0 97 29 135 160 569 188 622 12 23 66 19 82 -5z
m-636 -102 c49 -26 75 -62 80 -114 6 -67 -18 -114 -56 -110 -26 3 -27 4 -24
64 4 72 -11 94 -64 94 -153 0 -384 -290 -460 -577 -54 -203 -22 -354 75 -353
68 1 181 82 271 196 60 76 134 193 127 201 -3 2 -68 -12 -145 -32 -78 -19
-148 -35 -156 -35 -20 0 -39 36 -31 60 7 23 49 37 245 80 182 39 281 48 299
27 24 -30 9 -51 -47 -63 -30 -7 -54 -14 -56 -16 -1 -1 -15 -32 -31 -68 -49
-105 -123 -210 -204 -290 -98 -96 -172 -135 -256 -135 -112 0 -169 50 -201
175 -14 56 -15 77 -5 153 49 369 334 756 559 757 29 0 65 -6 80 -14z m-1150
-28 c19 -19 15 -44 -29 -188 -58 -194 -103 -363 -144 -540 -69 -303 -87 -342
-160 -342 -62 0 -92 40 -118 157 -28 123 -40 245 -46 475 l-6 225 -21 -45
c-75 -162 -200 -564 -230 -735 -4 -22 -11 -48 -16 -57 -11 -23 -64 -24 -76 -2
-20 35 56 336 154 610 99 280 147 364 209 364 24 0 39 -7 53 -24 17 -22 19
-50 25 -293 6 -256 21 -422 47 -525 7 -27 16 -48 20 -48 8 0 26 60 84 291 57
226 175 649 187 672 11 20 49 23 67 5z m568 2 c123 12 175 8 193 -14 9 -11 -6
-14 -81 -20 -51 -3 -97 -11 -102 -16 -10 -10 105 -6 179 6 21 3 26 1 19 -6 -6
-6 -40 -12 -75 -14 -35 -1 -103 -9 -151 -16 l-87 -14 -45 -140 c-85 -267 -171
-583 -196 -721 -6 -38 -15 -77 -20 -85 -11 -22 -35 -24 -55 -4 -14 15 -16 29
-11 77 14 134 64 342 171 710 21 70 36 130 34 132 -5 5 -156 -30 -237 -55 -73
-23 -102 -15 -102 26 0 32 25 43 212 90 152 38 150 37 188 59 17 10 28 11 37
4 8 -7 49 -7 129 1z m1948 -659 c26 -29 30 -85 12 -191 -73 -423 -321 -911
-672 -1324 -81 -95 -81 -95 -156 -67 -79 28 -185 37 -261 22 -190 -40 -353
-206 -388 -397 -6 -32 -15 -66 -19 -74 -26 -53 -638 -132 -902 -116 l-108 6 0
-23 c0 -37 -30 -118 -65 -173 -140 -220 -457 -257 -644 -75 -125 122 -165 335
-91 481 l20 39 -62 42 c-286 193 -512 449 -664 752 -71 141 -134 329 -141 422
-5 62 -3 73 17 98 31 39 76 36 216 -18 703 -272 1542 -317 2318 -124 503 125
947 337 1385 662 91 68 109 77 146 77 29 0 47 -6 59 -19z m-901 -45 c8 -19
-10 -80 -38 -136 -29 -57 -74 -84 -123 -76 -25 4 -41 1 -53 -10 -20 -18 -39 0
-21 18 7 7 9 29 5 53 -6 49 14 96 52 121 58 38 168 56 178 30z m-3573 -1041
c7 -8 10 -25 6 -40 l-6 -25 -363 2 -362 3 -3 29 c-2 16 2 32 10 37 7 5 169 9
359 9 295 0 348 -2 359 -15z m270 -309 c6 -8 10 -25 8 -38 l-3 -23 -665 -3
c-601 -2 -666 -1 -677 14 -12 17 -7 44 11 56 6 4 304 8 662 8 556 0 653 -2
664 -14z m3360 -311 c251 -88 341 -399 174 -602 -78 -95 -201 -149 -319 -140
-108 8 -179 40 -251 111 -82 82 -108 148 -109 271 0 81 4 97 32 157 86 183
286 269 473 203z m-3088 -20 c8 -19 8 -28 -2 -40 -11 -13 -80 -15 -551 -15
-528 0 -538 0 -549 20 -8 14 -8 26 0 40 11 20 21 20 551 20 l539 0 12 -25z
M5266 4570 c-9 -30 -19 -75 -21 -100 -4 -32 2 -19 20 45 27 99 28 143 1 55z
M3590 4704 c-7 -16 -24 -74 -40 -129 -25 -85 -35 -130 -65 -269 -3 -12 -1 -16
6 -9 11 11 120 425 113 432 -2 2 -8 -9 -14 -25z M3967 4473 c-19 -30 -107
-426 -107 -477 1 -47 15 -13 30 69 7 39 30 146 52 239 35 149 42 196 25 169z
M6060 4158 c-445 -344 -1034 -608 -1606 -719 -736 -142 -1511 -85 -2142 158
-79 30 -145 53 -147 51 -8 -7 34 -157 68 -245 133 -342 394 -667 706 -876 l54
-36 41 35 c230 197 587 84 675 -214 l17 -57 220 1 c226 2 444 23 618 62 l78
17 22 75 c31 107 71 174 151 256 75 77 161 128 271 160 78 23 210 23 292 -1
40 -11 66 -15 70 -8 4 5 46 56 93 114 231 280 410 601 520 929 39 117 82 309
77 340 -2 12 -20 3 -78 -42z M3220 2521 c-75 -24 -138 -69 -180 -127 -44 -62
-61 -118 -61 -202 1 -138 81 -254 209 -302 46 -18 72 -21 132 -18 92 6 157 36
219 103 66 71 86 124 86 225 0 74 -4 92 -29 143 -35 68 -99 131 -164 160 -51
22 -169 32 -212 18z m132 -163 c22 -6 53 -27 73 -49 109 -121 -5 -312 -163
-271 -160 42 -170 262 -15 318 48 17 56 17 105 2z M3246 2258 c-44 -40 -36
-107 15 -134 95 -49 174 78 90 143 -26 20 -77 15 -105 -9z M5215 4214 c-39
-14 -85 -50 -85 -66 0 -5 14 1 30 14 23 16 33 19 42 10 8 -8 2 -19 -25 -43
-21 -18 -37 -37 -37 -42 0 -13 42 3 66 25 20 18 61 105 53 112 -2 2 -22 -3
-44 -10z M5155 2513 c-65 -24 -110 -56 -145 -105 -138 -190 -20 -447 214 -465
94 -8 157 16 227 86 94 94 115 210 61 326 -65 136 -223 206 -357 158z m164
-151 c45 -24 71 -74 71 -135 0 -42 -5 -53 -39 -89 -35 -38 -43 -42 -98 -46
-53 -4 -62 -1 -91 23 -42 35 -62 75 -62 122 0 107 122 177 219 125z M5195
2285 c-14 -13 -25 -36 -25 -50 0 -35 42 -75 78 -75 65 0 97 89 46 129 -35 28
-69 26 -99 -4z"/>
</g>
</svg>
