<?xml version="1.0" standalone="no"?>
<!DOCTYPE svg PUBLIC "-//W3C//DTD SVG 20010904//EN"
 "http://www.w3.org/TR/2001/REC-SVG-20010904/DTD/svg10.dtd">
<svg version="1.0" xmlns="http://www.w3.org/2000/svg"
 width="512.000000pt" height="512.000000pt" viewBox="0 0 512.000000 512.000000"
 preserveAspectRatio="xMidYMid meet">
  <rect width="100%" height="100%" fill="#3d4726"/>
<metadata>
Created by potrace 1.16, written by Peter Selinger 2001-2019
</metadata>
<g transform="translate(0.000000,512.000000) scale(0.073247,-0.073247)"
fill="#3d4726" stroke="none">
<path d="M0 3495 l0 -3495 3495 0 3495 0 0 3495 0 3495 -3495 0 -3495 0 0
-3495z m4979 2071 c9 -10 6 -29 -8 -77 -11 -35 -19 -65 -17 -66 2 -2 32 1 67
7 92 14 154 13 169 -5 10 -12 10 -18 0 -30 -7 -8 -16 -12 -21 -9 -5 3 -61 -5
-124 -17 l-115 -22 -26 -81 c-70 -221 -148 -575 -142 -645 2 -28 -1 -36 -16
-39 -71 -14 -59 135 40 526 30 117 54 214 54 216 0 2 -33 -4 -72 -15 -79 -20
-123 -25 -100 -10 10 6 7 10 -12 13 -14 3 -23 1 -20 -3 3 -5 -6 -9 -20 -9 -21
0 -26 5 -26 25 0 25 31 65 50 65 6 0 17 -9 26 -19 16 -18 19 -18 107 5 50 14
92 26 93 27 1 1 12 34 24 72 12 39 27 78 32 88 10 20 41 22 57 3z m-1532 -62
c3 -8 -11 -88 -30 -177 -20 -89 -59 -265 -87 -391 -28 -126 -62 -270 -76 -320
-49 -179 -67 -206 -130 -206 -76 0 -108 99 -160 484 -12 90 -44 376 -44 392 0
2 -4 4 -9 4 -12 0 -93 -217 -145 -391 -42 -138 -101 -401 -108 -479 -3 -32 -6
-35 -33 -35 -28 0 -30 2 -33 44 -10 141 130 670 232 873 48 96 82 127 123 112
45 -15 60 -62 78 -244 35 -358 84 -670 105 -670 11 0 58 173 161 595 50 209
95 390 100 403 10 26 47 30 56 6z m643 -89 c10 -12 11 -27 2 -63 -6 -26 -9
-49 -7 -50 2 -2 35 1 74 7 100 16 160 14 167 -4 11 -28 -3 -43 -33 -37 l-28 6
25 6 c47 11 5 18 -55 8 -80 -12 -99 -31 -25 -24 39 4 27 0 -39 -14 -52 -11
-98 -23 -102 -27 -29 -31 -164 -591 -157 -656 2 -27 -1 -33 -19 -35 -62 -9
-48 144 45 511 23 92 35 157 29 157 -6 0 -55 -12 -109 -26 -107 -28 -131 -27
-126 8 3 26 24 34 173 72 l90 24 18 53 c34 104 48 119 77 84z m1014 -160 c10
-28 -13 -64 -41 -65 -19 0 -32 32 -22 58 10 26 53 31 63 7z m520 -51 c22 -8
20 -35 -8 -126 -14 -43 -20 -78 -15 -78 5 0 23 27 39 61 39 77 105 149 136
149 56 0 64 -42 40 -209 -20 -141 -5 -165 55 -91 18 22 37 40 43 40 5 0 1 -6
-10 -14 -10 -8 -15 -18 -11 -22 4 -5 12 -2 17 6 17 27 10 0 -10 -40 -37 -73
-101 -93 -140 -42 -20 24 -22 35 -16 107 3 44 9 104 12 133 4 28 3 52 -2 52
-14 0 -90 -126 -150 -248 -31 -62 -62 -116 -70 -119 -29 -11 -47 18 -41 67 10
79 80 351 94 366 17 16 16 16 37 8z m-223 -34 c122 -66 -8 -440 -153 -440 -41
0 -78 38 -85 88 -6 44 -18 55 -27 24 -4 -10 -30 -44 -59 -75 -46 -50 -58 -57
-90 -57 -34 0 -40 4 -53 36 -19 46 -7 124 39 264 29 86 34 95 57 95 36 0 36
-27 0 -142 -34 -109 -49 -203 -32 -203 16 0 97 95 148 173 26 40 55 84 65 99
11 15 19 34 19 43 0 25 28 72 52 89 26 18 90 21 119 6z m-968 -61 c12 -7 25
-17 29 -23 12 -17 9 -71 -3 -83 -17 -17 -39 -4 -39 23 0 38 -32 30 -76 -18
-50 -54 -106 -169 -135 -273 -31 -114 -36 -125 -58 -125 -43 0 -44 30 -7 213
44 213 57 257 78 271 26 16 52 -13 40 -45 -16 -44 -22 -79 -14 -79 5 0 14 11
20 24 15 34 82 106 107 116 28 12 33 12 58 -1z m181 -12 c8 -12 6 -35 -8 -84
-50 -183 -76 -291 -76 -321 0 -37 -22 -51 -46 -31 -29 24 -11 157 52 376 23
78 52 101 78 60z m-871 -137 c0 -14 -13 -79 -27 -145 -28 -130 -31 -162 -16
-185 7 -12 13 -11 36 10 14 14 47 53 71 88 33 46 49 60 57 52 15 -15 -25 -87
-82 -151 -35 -40 -50 -49 -76 -49 -46 0 -67 28 -75 96 l-6 57 -48 -77 c-53
-83 -78 -106 -118 -106 -80 0 -89 128 -23 332 27 82 42 102 68 92 23 -9 20
-41 -14 -156 -28 -95 -40 -198 -22 -198 24 0 120 151 189 296 32 68 38 75 62
72 21 -2 26 -8 24 -28z m1811 -386 c9 -8 16 -18 16 -22 0 -4 -41 -130 -90
-279 -126 -381 -129 -388 -159 -358 -13 13 -11 31 17 142 40 161 139 481 158
511 17 26 36 28 58 6z m-903 -84 c44 -12 84 -55 93 -99 11 -63 -25 -148 -59
-135 -21 8 -24 27 -12 71 9 34 8 45 -6 67 -61 93 -271 -88 -383 -330 -86 -186
-100 -397 -30 -467 61 -61 205 41 302 214 49 88 63 124 43 117 -48 -18 -209
-50 -223 -45 -12 5 -16 16 -14 34 3 26 8 28 138 60 183 45 280 58 298 39 24
-23 7 -43 -43 -50 -38 -6 -48 -12 -57 -34 -59 -151 -136 -272 -171 -272 -6 0
-2 9 8 20 10 11 14 20 9 20 -5 0 -28 -23 -52 -50 -44 -51 -45 -71 -2 -25 13
14 31 25 39 25 23 -1 -86 -100 -134 -121 -55 -25 -138 -25 -181 1 -67 42 -102
167 -84 301 39 286 234 585 424 651 61 21 53 20 97 8z m-767 -173 c10 -7 17
-21 15 -30 -3 -14 -20 -18 -94 -22 -49 -3 -144 -15 -210 -27 l-120 -23 -48
-145 c-56 -167 -130 -449 -150 -565 -11 -68 -16 -80 -33 -80 -15 0 -20 8 -22
44 -6 83 45 328 124 594 19 65 34 122 32 126 -3 9 -145 -26 -282 -67 -71 -22
-96 -18 -96 14 0 26 47 44 226 90 98 25 187 53 197 62 14 12 22 14 36 5 12 -8
39 -7 99 3 188 33 300 40 326 21z m1180 -227 c116 -44 36 -364 -110 -441 -51
-28 -85 -21 -118 24 -40 55 -23 196 33 276 10 14 22 40 25 58 10 45 67 93 111
93 18 0 45 -4 59 -10z m1225 -65 c16 -8 31 -22 35 -30 12 -32 6 -155 -14 -272
-78 -461 -329 -963 -677 -1357 l-43 -49 48 -51 c156 -165 186 -398 79 -601
-91 -170 -298 -274 -489 -246 -106 16 -202 66 -272 142 -61 65 -110 152 -121
213 -9 46 -20 51 -87 36 -115 -24 -322 -50 -490 -61 -168 -11 -389 -4 -589 17
l-56 6 -17 -52 c-68 -208 -288 -345 -496 -310 -125 21 -241 99 -312 210 -91
143 -90 350 4 501 l30 49 -78 73 c-216 200 -346 365 -482 610 -109 196 -226
531 -239 683 -5 68 -4 74 20 98 40 40 72 34 218 -40 351 -175 680 -273 1113
-330 166 -22 654 -30 839 -14 197 16 460 62 665 115 456 119 868 313 1215 574
143 107 151 110 196 86z m-2550 -60 c56 -48 64 -135 21 -247 -57 -149 -161
-230 -241 -188 -63 34 -66 163 -6 281 20 41 37 79 37 86 0 17 50 74 74 83 40
17 84 11 115 -15z m1631 -164 c0 -27 -21 -83 -38 -103 -8 -10 -24 -18 -35 -18
-11 0 -29 -8 -39 -17 -18 -16 -18 -14 -14 43 4 50 8 62 35 86 37 34 91 39 91
9z m-3636 -677 c19 -18 21 -55 4 -72 -17 -17 -679 -17 -696 0 -18 18 -15 65 6
77 10 7 140 11 344 11 284 0 329 -2 342 -16z m284 -376 c15 -15 15 -61 0 -76
-17 -17 -1319 -17 -1336 0 -17 17 -15 54 4 72 14 14 88 16 668 16 494 0 655
-3 664 -12z m300 -404 c12 -8 22 -26 22 -38 0 -52 11 -51 -617 -51 -631 0
-602 -2 -603 52 0 54 -17 53 603 53 502 0 575 -2 595 -16z M5092 5410 c-51 -8
-70 -15 -61 -24 2 -3 37 0 77 6 44 7 67 15 60 20 -7 4 -15 7 -18 7 -3 -1 -29
-5 -58 -9z M4602 5330 c0 -14 2 -19 5 -12 2 6 2 18 0 25 -3 6 -5 1 -5 -13z
M4787 5043 c-8 -13 -55 -234 -62 -290 -11 -87 10 -61 25 30 7 45 23 124 35
175 12 50 19 92 14 92 -4 0 -10 -3 -12 -7z M3360 5276 c0 -2 -23 -102 -50
-221 -28 -120 -48 -220 -46 -223 11 -10 32 66 81 293 14 66 28 128 31 138 3 9
1 17 -5 17 -6 0 -11 -2 -11 -4z M2780 5100 c-6 -11 -9 -26 -7 -33 3 -7 10 1
16 17 14 35 7 47 -9 16z M3925 4928 c-52 -226 -65 -318 -46 -318 6 0 11 12 11
26 0 25 44 257 56 297 3 9 1 17 -5 17 -6 0 -13 -10 -16 -22z M5320 5110 c-26
-26 -35 -66 -21 -96 9 -21 17 -25 48 -22 35 3 38 5 46 46 7 34 5 49 -8 68 -19
29 -38 31 -65 4z M5236 4929 c-32 -106 -14 -169 36 -129 27 21 88 109 88 127
0 6 -16 13 -36 16 -20 3 -45 14 -55 23 -17 15 -18 13 -33 -37z M4131 4704 c0
-11 3 -14 6 -6 3 7 2 16 -1 19 -3 4 -6 -2 -5 -13z M4517 4847 c-17 -71 -23
-136 -11 -124 10 9 41 187 34 192 -4 2 -14 -28 -23 -68z M3749 4613 c-13 -16
-12 -17 4 -4 16 13 21 21 13 21 -2 0 -10 -8 -17 -17z M5371 4110 c-7 -25 -16
-61 -22 -80 -5 -19 -9 -42 -9 -50 0 -30 18 12 35 82 19 75 15 119 -4 48z
M3740 4293 c-19 -3 -39 -9 -45 -15 -7 -7 5 -9 39 -4 27 3 71 6 98 6 30 0 47 4
43 10 -6 10 -65 11 -135 3z M3658 4273 c7 -3 16 -2 19 1 4 3 -2 6 -13 5 -11 0
-14 -3 -6 -6z M3293 4217 c-49 -14 -72 -32 -28 -22 71 16 105 26 105 30 0 8
-31 4 -77 -8z M3310 3870 c-12 -23 -64 -254 -75 -335 -12 -88 14 -37 31 61 8
49 26 133 40 188 25 98 26 127 4 86z M4981 4026 c-33 -35 -33 -83 1 -109 23
-17 31 -19 53 -9 22 10 25 18 25 65 0 78 -34 101 -79 53z M4899 3863 c-6 -16
-13 -55 -16 -88 -4 -47 -2 -63 10 -73 23 -19 50 1 98 72 48 72 49 86 6 86 -18
0 -42 7 -53 15 -27 20 -33 19 -45 -12z M6117 3826 c-443 -329 -1061 -570
-1697 -660 -272 -39 -680 -45 -975 -16 -439 45 -912 180 -1227 350 -43 23 -82
40 -86 38 -14 -5 15 -131 64 -278 78 -232 187 -440 334 -635 75 -99 263 -297
331 -348 l36 -27 69 35 c94 48 175 62 266 47 192 -33 347 -190 381 -385 13
-77 0 -71 187 -88 258 -23 661 1 940 54 l65 13 8 49 c38 223 176 379 380 431
76 20 180 14 254 -14 l53 -20 58 67 c322 367 557 825 641 1248 25 125 35 213
24 213 -4 -1 -52 -34 -106 -74z M5162 2289 c-70 -27 -173 -124 -206 -192 -122
-251 44 -560 308 -575 95 -6 164 12 236 60 118 78 187 219 178 363 -9 139 -96
268 -223 330 -80 40 -212 46 -293 14z m199 -179 c53 -15 114 -85 127 -146 28
-130 -67 -254 -193 -254 -106 0 -195 91 -195 200 0 147 120 239 261 200z
M5248 2003 c-55 -34 -64 -105 -19 -155 23 -26 36 -32 66 -31 43 1 90 40 98 81
7 39 -17 88 -52 106 -38 20 -59 20 -93 -1z M3080 2221 c-56 -18 -129 -62 -156
-93 -138 -157 -137 -377 3 -516 75 -74 130 -97 238 -97 110 0 160 20 239 95
78 74 111 151 110 255 -1 104 -29 177 -95 250 -69 75 -139 108 -238 111 -42 2
-87 0 -101 -5z m133 -172 c50 -14 113 -71 128 -116 17 -52 7 -126 -24 -171
-104 -149 -333 -72 -329 110 1 50 27 112 60 141 18 16 89 45 117 46 6 1 27 -4
48 -10z M3133 1944 c-64 -32 -65 -117 -2 -149 40 -21 57 -19 90 14 36 36 38
80 7 115 -31 33 -57 38 -95 20z M3649 3920 c-24 -14 -42 -65 -35 -95 15 -59
100 -52 111 9 13 64 -31 113 -76 86z M3558 3758 c-6 -13 -12 -57 -12 -98 -1
-65 1 -75 17 -78 25 -5 71 40 108 103 16 28 29 52 29 55 0 3 -18 5 -39 5 -23
0 -47 8 -58 18 -25 22 -30 22 -45 -5z M3620 3770 c-13 -9 -13 -10 0 -10 8 0
26 -3 40 -6 24 -5 24 -5 6 10 -23 19 -26 19 -46 6z M5313 3782 c-13 -2 -23
-10 -23 -18 0 -9 5 -12 11 -8 8 5 8 1 0 -14 -13 -25 -14 -32 -2 -32 9 0 46 70
39 74 -1 1 -13 0 -25 -2z"/>
</g>
</svg>
