<?xml version="1.0" encoding="UTF-8"?>
<!-- Generator: visioncortex VTracer 0.6.12 -->
<svg version="1.1" xmlns="http://www.w3.org/2000/svg" viewBox="45 120 425 255" width="425" height="255">
  <!-- ntg-logo | uso: color: #3d4726 via CSS -->
  <title>ntg-logo</title>
<path d="M0 0 C0.4318 -0.0142 0.8637 -0.0284 1.3086 -0.043 C3.0303 0.2735 3.5283 0.7771 4.5625 2.1875 C4.6291 3.6603 4.5794 4.8377 4.3789 6.2773 C4.3534 6.4769 4.3534 6.4769 4.2245 7.487 C3.5924 11.8131 2.1144 15.7106 0.5 19.75 C-0.1401 21.3931 -0.7708 23.0396 -1.3984 24.6875 C-1.5633 25.1188 -1.7281 25.5501 -1.8979 25.9944 C-3.2286 29.5233 -4.401 33.0924 -5.5391 36.6875 C-5.7135 37.2336 -5.8879 37.7796 -6.0677 38.3423 C-6.7605 40.5132 -7.4528 42.6837 -8.1158 44.864 C-8.5784 46.3839 -9.059 47.897 -9.543 49.4102 C-9.6751 49.8645 -9.8072 50.3189 -9.9434 50.787 C-10.9377 53.8217 -10.9377 53.8217 -12.4464 54.926 C-13.4314 55.4232 -14.3917 55.8388 -15.4375 56.1875 C-16.9873 55.2089 -17.6312 54.7873 -18.4375 53.1875 C-18.3854 50.4581 -17.6741 47.8799 -17 45.25 C-16.8077 44.4517 -16.6163 43.6532 -16.4255 42.8545 C-6.0189 0.0893 -6.0189 0.0893 0 0 Z " fill="currentColor" transform="translate(399.4375,134.8125)"/>
<path d="M0 0 C2.5061 1.8435 4.3599 3.7629 5.1875 6.8125 C5.3578 10.1898 5.2641 14.259 3.2969 17.0977 C2.1875 17.8125 2.1875 17.8125 0.9336 17.8594 C0.5018 17.7614 0.0699 17.6634 -0.375 17.5625 C-0.8094 17.4748 -1.2438 17.3872 -1.6914 17.2969 C-2.8125 16.8125 -2.8125 16.8125 -3.4961 15.9219 C-3.9987 14.1597 -3.4327 12.7607 -2.9688 11.0312 C-2.7859 9.6052 -3.0584 9.0102 -3.8125 7.8125 C-7.9795 6.9432 -10.9183 7.5664 -14.4756 9.7554 C-27.1697 18.4175 -36.5091 36.0671 -39.418 51.0625 C-40.4482 57.5317 -40.569 63.7581 -37.8125 69.8125 C-34.6987 70.729 -32.0403 71.2206 -29 69.875 C-19.5552 64.3861 -12.4535 55.5878 -7.8125 45.8125 C-8.3013 45.9389 -8.7901 46.0653 -9.2937 46.1956 C-11.1269 46.6666 -12.9633 47.1235 -14.801 47.5764 C-15.5923 47.7735 -16.3827 47.9743 -17.1721 48.179 C-25.5916 50.3571 -25.5916 50.3571 -29.8125 48.8125 C-31.0344 45.269 -31.0344 45.269 -30.0625 43.2695 C-28.5969 41.5612 -27.281 40.9459 -25.1875 40.3125 C-24.8056 40.1921 -24.4237 40.0718 -24.0303 39.9478 C-15.1194 37.3046 -5.6881 35.8119 3.5625 35.0625 C4.1036 35.0179 4.6447 34.9732 5.2021 34.9272 C8.9275 34.6825 8.9275 34.6825 11.1875 35.8125 C11.1875 37.4625 11.1875 39.1125 11.1875 40.8125 C10.4196 41.1525 9.648 41.4842 8.875 41.8125 C8.4457 41.9981 8.0165 42.1838 7.5742 42.375 C6.0435 42.8579 4.783 42.8874 3.1875 42.8125 C3.1127 43.1296 3.038 43.4467 2.9609 43.7734 C-0.6863 56.7175 -10.8767 68.4357 -21.8125 75.8125 C-22.3127 76.1734 -22.8128 76.5344 -23.3281 76.9062 C-27.8682 79.7242 -33.6667 79.6289 -38.8125 78.8125 C-42.2543 77.7524 -44.2291 75.9329 -46.0234 72.8594 C-51.332 62.6914 -50.0132 52.4961 -46.8125 41.8125 C-41.6686 26.3808 -31.3536 8.7013 -16.5664 0.582 C-11.5826 -1.6046 -4.9704 -2.6659 0 0 Z " fill="currentColor" transform="translate(358.8125,144.1875)"/>
<path d="M0 0 C0.3416 0.0902 0.6832 0.1805 1.0352 0.2734 C1.9375 0.625 1.9375 0.625 2.9375 1.625 C3.0352 3.2539 3.0352 3.2539 3 5.1875 C2.991 5.8282 2.982 6.4688 2.9727 7.1289 C2.9611 7.6226 2.9495 8.1163 2.9375 8.625 C5.3559 7.9728 7.7727 7.3154 10.1885 6.6536 C11.0065 6.4302 11.8248 6.2081 12.6436 5.9875 C17.5997 4.6511 22.3795 3.1662 27.1248 1.199 C29.8417 0.3387 32.4057 0.4386 35.2383 0.5938 C37.4015 0.661 39.5117 0.5254 41.668 0.3438 C41.9975 0.3164 42.3271 0.289 42.6666 0.2608 C44.32 0.122 45.9704 -0.0286 47.6213 -0.1958 C51.6775 -0.5349 54.2827 -0.2024 57.9375 1.625 C57.9375 3.275 57.9375 4.925 57.9375 6.625 C55.0778 7.8002 52.2352 7.9193 49.1875 8.125 C44.7349 8.4348 40.35 8.9482 35.9375 9.625 C29.5066 27.3261 24.4859 45.1107 19.9919 63.3916 C18.7346 68.4999 17.4435 73.5836 15.9375 78.625 C15.7505 78.5914 15.7505 78.5914 14.8044 78.4216 C14.374 78.3444 13.9435 78.2671 13.5 78.1875 C11.0625 77.75 11.0625 77.75 9.9375 76.625 C8.6639 68.9527 10.6557 61.1216 12.5625 53.75 C12.8337 52.6637 13.1042 51.5773 13.374 50.4907 C15.7901 40.8534 18.4913 31.2959 21.3066 21.7686 C22.2046 18.7267 23.0721 15.6762 23.9375 12.625 C13.1825 14.4108 13.1825 14.4108 8.2109 16.25 C6.1125 16.868 4.0989 16.766 1.9375 16.625 C1.2775 16.625 0.6175 16.625 -0.0625 16.625 C-3.5926 28.8085 -7.0355 40.9806 -9.75 53.375 C-11.0767 59.4023 -12.4232 65.3955 -14.1875 71.3125 C-14.3341 71.8233 -14.4806 72.3341 -14.6316 72.8604 C-15.5707 75.86 -16.5265 77.7106 -19.0625 79.625 C-21.506 80.372 -23.6008 80.2851 -26.0625 79.625 C-31.5426 75.59 -32.7067 69.2517 -33.6844 62.8919 C-34.0242 60.5353 -34.3278 58.1748 -34.625 55.8125 C-34.6894 55.3144 -34.7538 54.8164 -34.8202 54.3032 C-36.0479 44.7623 -36.7326 35.2361 -37.0625 25.625 C-40.4307 32.64 -42.8661 39.8118 -45.125 47.25 C-45.3006 47.8203 -45.4762 48.3905 -45.6571 48.9781 C-47.9177 56.3343 -49.9963 63.6395 -51.1389 71.2603 C-51.6964 74.7647 -52.6266 77.0101 -55.0625 79.625 C-55.2495 79.5914 -55.2495 79.5914 -56.1956 79.4216 C-56.626 79.3444 -57.0565 79.2671 -57.5 79.1875 C-59.9375 78.75 -59.9375 78.75 -61.0625 77.625 C-61.2172 63.984 -55.7105 50.1525 -51.5122 37.3672 C-51.193 36.3919 -50.8769 35.4156 -50.5616 34.4391 C-48.3917 27.7387 -46.0546 21.212 -42.9297 14.8906 C-42.6886 14.4002 -42.4474 13.9098 -42.199 13.4045 C-40.7963 10.6827 -39.4058 8.6127 -37.0625 6.625 C-35.5977 6.1914 -35.5977 6.1914 -34.125 6.1875 C-33.6416 6.1682 -33.1582 6.1488 -32.6602 6.1289 C-30.0558 6.9376 -28.4904 8.2972 -27.0625 10.625 C-26.5555 13.1457 -26.5205 15.5869 -26.5461 18.1519 C-26.5589 19.4511 -26.5473 20.7483 -26.53 22.0474 C-26.498 24.8234 -26.4983 27.5989 -26.5 30.375 C-26.4971 33.9951 -26.478 37.6146 -26.4336 41.2344 C-26.4287 41.6751 -26.4239 42.1159 -26.4189 42.5701 C-26.2999 51.1506 -25.0412 59.2846 -23.0625 67.625 C-22.9331 67.122 -22.8037 66.619 -22.6704 66.1008 C-19.4682 53.6724 -16.1956 41.2619 -12.8753 28.8645 C-12.3213 26.7961 -11.7691 24.7274 -11.2213 22.6574 C-10.6965 20.6753 -10.1666 18.6947 -9.6329 16.715 C-9.4364 15.9828 -9.2417 15.2501 -9.0489 14.5169 C-5.6805 1.7218 -5.6805 1.7218 -3.0345 -0.0719 C-1.8444 -0.443 -1.1934 -0.3358 0 0 Z " fill="currentColor" transform="translate(273.0625,145.375)"/>
<path d="M0 0 C1.9073 0.855 2.7131 1.3543 3.5605 3.2615 C5.5351 11.0731 3.5985 19.3714 1.5 26.9375 C1.3678 27.428 1.2357 27.9185 1.0995 28.4239 C-6.6693 57.1319 -21.2778 82.9391 -40 105.9375 C-40.2613 106.2589 -40.5226 106.5803 -40.7919 106.9114 C-42.2494 108.6923 -43.7366 110.4411 -45.2647 112.1617 C-45.7678 112.7352 -46.2628 113.3158 -46.7506 113.9022 C-50.8778 118.8527 -50.8778 118.8527 -53.4194 119.1863 C-54.9429 118.908 -56.2513 118.4529 -57.6875 117.875 C-58.7365 117.5371 -59.7887 117.2091 -60.8438 116.8906 C-61.3697 116.7301 -61.8956 116.5696 -62.4375 116.4043 C-69.9986 114.4478 -78.3695 115.8492 -85.1309 119.6328 C-86.5938 120.5091 -88.0318 121.4093 -89.4382 122.3738 C-91.1564 123.5488 -91.8537 124 -94 124 C-94.2681 124.5427 -94.5362 125.0854 -94.8125 125.6445 C-95.6606 127.3445 -96.5423 129.0236 -97.4375 130.6992 C-102.6914 140.6855 -102.6914 140.6855 -103.1543 146.1453 C-103.3623 147.7587 -103.7557 148.7879 -104.9868 149.8569 C-123.6697 161.8061 -155.638 158.4443 -177 158 C-177.0824 158.2866 -177.1647 158.5731 -177.2496 158.8684 C-177.6291 160.1815 -178.0137 161.4931 -178.3984 162.8047 C-178.4632 163.0301 -178.4632 163.0301 -178.7908 164.1707 C-181.1325 172.1094 -187.0158 178.2811 -194.0151 182.6309 C-195.9383 183.6632 -197.9098 184.3877 -200 185 C-200.428 185.1289 -200.8559 185.2578 -201.2969 185.3906 C-202.5387 185.697 -203.7275 185.8731 -205 186 C-205.2494 186.0264 -205.2494 186.0264 -206.5117 186.1602 C-215.3502 186.634 -222.5983 183.2605 -229.2852 177.7188 C-230.8438 176.302 -231.5815 175.1117 -232 173 C-232.66 173 -233.32 173 -234 173 C-238.1502 168.8715 -240.093 160.1672 -240.375 154.5 C-240.2255 151.0115 -239.1726 147.7533 -238.0679 144.4629 C-236.5207 139.8452 -236.5207 139.8452 -237 138 C-238.2975 136.7463 -239.7913 135.8351 -241.3125 134.875 C-253.9493 126.4437 -265.213 116.3215 -274.2163 104.0527 C-274.975 103.0336 -275.7567 102.0386 -276.5508 101.0469 C-287.2615 87.539 -300.2117 63.8798 -298.1909 45.9438 C-297.7944 43.9834 -296.9652 42.8107 -295.3518 41.6697 C-292.0372 40.0276 -288.1686 40.5508 -284.7532 41.675 C-282.6548 42.4355 -280.5908 43.2768 -278.53 44.1331 C-276.2057 45.0929 -273.8609 45.9994 -271.5156 46.9062 C-271.0437 47.0889 -270.5717 47.2716 -270.0854 47.4599 C-254.4378 53.4637 -237.9547 56.0251 -221.4845 58.7521 C-220.4638 58.9225 -219.4438 59.0968 -218.4243 59.2742 C-214.1763 60.0069 -209.9889 60.3447 -205.6875 60.5625 C-205.2866 60.5833 -204.8857 60.6042 -204.4727 60.6257 C-192.9876 61.2054 -181.4954 61.1826 -170 61 C-169.5632 60.9938 -169.1265 60.9875 -168.6765 60.9811 C-134.1705 60.4542 -99.751 50.9544 -68.1616 37.4949 C-67.4086 37.1741 -66.6551 36.8545 -65.9009 36.5364 C-47.6676 28.8404 -30.6123 18.3022 -15.0526 6.1092 C-5.9747 -0.9987 -5.9747 -0.9987 0 0 Z M-6 10 C-6.29 10.4602 -6.5801 10.9204 -6.8789 11.3945 C-8.127 13.1818 -9.0096 13.7212 -10.9375 14.6875 C-14.2232 16.4298 -17.1501 18.5249 -20.125 20.75 C-29.9495 28.0172 -40.3476 33.8766 -51.3374 39.1841 C-52.9016 39.9517 -54.4466 40.7468 -55.9883 41.5586 C-63.0985 45.281 -70.376 48.1518 -77.9155 50.8558 C-79.7446 51.5185 -81.5514 52.2187 -83.3486 52.9639 C-89.3058 55.4332 -95.267 57.3557 -101.5 59 C-101.9735 59.1266 -102.4471 59.2532 -102.935 59.3837 C-132.9178 67.3963 -161.9815 70.5368 -193 70 C-193.4173 69.9938 -193.8345 69.9875 -194.2644 69.9811 C-226.1863 69.4852 -259.6616 62.8214 -289 50 C-287.2044 75.4977 -267.151 102.7861 -248.5146 119.0801 C-242.6876 124.0342 -236.762 128.4077 -230 132 C-229.5037 131.6017 -229.0074 131.2034 -228.4961 130.793 C-220.4188 124.4266 -214.0248 121.9369 -203.6235 122.7666 C-199.8163 123.3139 -196.4019 124.858 -192.9756 126.5425 C-191.686 127.1473 -190.3619 127.588 -189 128 C-189 128.66 -189 129.32 -189 130 C-188.0469 131.0781 -188.0469 131.0781 -186.75 132.25 C-182.7851 136.0917 -180.2309 140.0507 -178.3828 145.1992 C-178.2482 145.5664 -178.1136 145.9336 -177.9749 146.3119 C-177.6471 147.2069 -177.3232 148.1033 -177 149 C-157.3439 149.1572 -138.6391 148.8572 -119.3242 144.9375 C-119.1277 144.8979 -119.1277 144.8979 -118.1333 144.6976 C-113.6812 143.7715 -113.6812 143.7715 -112 143 C-111.3875 141.9277 -111.3875 141.9277 -111.043 140.5938 C-110.9733 140.3477 -110.9733 140.3477 -110.6206 139.1028 C-110.4777 138.5739 -110.3348 138.0449 -110.1875 137.5 C-106.7677 126.3335 -99.5641 116.9436 -89.1094 111.3594 C-80.6666 107.3042 -72.0771 105.9901 -62.938 108.0654 C-56.2782 109.5334 -56.2782 109.5334 -53.7808 108.4912 C-50.9198 106.5381 -48.9926 103.7844 -47 101 C-46.3656 100.1779 -45.7288 99.3576 -45.0898 98.5391 C-42.9626 95.7584 -40.9809 92.8859 -39 90 C-38.6124 89.4437 -38.2244 88.8877 -37.8359 88.332 C-22.3288 66.1095 -5.7528 37.8541 -5 10 C-5.33 10 -5.66 10 -6 10 Z M-224.8359 137.4414 C-225.2201 137.9557 -225.6042 138.4701 -226 139 C-226.1142 139.1507 -226.1142 139.1507 -226.6924 139.9136 C-230.9151 145.6992 -232.2053 151.4567 -231.2822 158.5674 C-229.998 165.0863 -226.0594 169.5014 -220.7676 173.2378 C-219.8557 173.8486 -218.9448 174.4415 -218 175 C-217.6994 175.1819 -217.3988 175.3638 -217.0891 175.5513 C-212.4797 177.4504 -202.9985 176.996 -198.4414 175.1641 C-193.1357 172.3897 -188.2794 166.5169 -186 161 C-185.0849 153.8383 -184.8758 145.792 -189.354 139.7832 C-193.0703 135.2776 -198.2983 131.6841 -204.1577 130.8315 C-211.7731 130.1084 -219.5826 131.4197 -224.8359 137.4414 Z " fill="currentColor" transform="translate(454,192)"/>
<path d="M0 0 C1.4981 3.222 0.5517 5.4122 -0.5398 8.5781 C-1.8861 12.1663 -3.6727 14.946 -7 17 C-9.6814 17.8784 -12.198 18 -15 18 C-16.125 19 -16.125 19 -17 20 C-17.3638 19.3806 -17.7158 18.7542 -18.0625 18.125 C-18.2597 17.777 -18.457 17.4289 -18.6602 17.0703 C-19 16 -19 16 -18.543 15.0391 C-18.3638 14.6962 -18.1846 14.3533 -18 14 C-18.0553 13.0812 -18.1419 12.1641 -18.25 11.25 C-18.3041 8.0975 -17.1569 6.2463 -15.1233 3.9829 C-10.7245 -0.5143 -5.879 -0.2626 0 0 Z M-7 5 C-7.33 6.65 -7.66 8.3 -8 10 C-7.34 9.34 -6.68 8.68 -6 8 C-6.33 7.01 -6.66 6.02 -7 5 Z " fill="currentColor" transform="translate(391,196)"/>
<path d="M0 0 C0.218 -0.0021 0.218 -0.0021 1.3213 -0.0129 C1.8008 -0.0125 2.2803 -0.012 2.7743 -0.0116 C3.2784 -0.0149 3.7825 -0.0183 4.3019 -0.0217 C5.9751 -0.0313 7.6482 -0.0332 9.3214 -0.0343 C10.4811 -0.0375 11.6407 -0.0408 12.8003 -0.0443 C15.234 -0.0503 17.6677 -0.0522 20.1015 -0.0516 C23.2233 -0.0515 26.345 -0.0651 29.4668 -0.0824 C31.8628 -0.0935 34.2588 -0.0955 36.6548 -0.095 C37.8059 -0.0962 38.957 -0.1006 40.108 -0.1083 C41.717 -0.1181 43.3255 -0.1152 44.9345 -0.1092 C45.4119 -0.1148 45.8894 -0.1204 46.3814 -0.1262 C48.2841 -0.108 49.5844 -0.0375 51.2931 0.8364 C52.3186 2.9616 51.5395 4.9372 50.9191 7.1337 C44.026 7.1571 37.133 7.1746 30.2399 7.1855 C27.0394 7.1908 23.839 7.1978 20.6386 7.2092 C17.5522 7.22 14.4659 7.226 11.3796 7.2286 C10.1998 7.2304 9.02 7.2341 7.8402 7.2394 C6.1927 7.2467 4.5453 7.2477 2.8978 7.2472 C2.4058 7.2508 1.9139 7.2544 1.407 7.2581 C0.9596 7.2568 0.5123 7.2554 0.0514 7.254 C-0.1435 7.2544 -0.1435 7.2544 -1.1301 7.2568 C-2.0809 7.1337 -2.0809 7.1337 -3.0809 6.1337 C-3.2137 4.9775 -3.2137 4.9775 -3.2059 3.6337 C-3.2085 3.1903 -3.2111 2.7468 -3.2137 2.29 C-2.9691 0.1603 -1.8904 0.0083 0 0 Z " fill="currentColor" transform="translate(83.08091735839844,270.8662872314453)"/>
<path d="M0 0 C0.3882 -0.0023 0.7765 -0.0045 1.1765 -0.0069 C2.4785 -0.0132 3.7804 -0.0124 5.0824 -0.0116 C6.0154 -0.0145 6.9484 -0.0179 7.8814 -0.0217 C10.4165 -0.0306 12.9515 -0.0329 15.4866 -0.0335 C17.6015 -0.0345 19.7164 -0.0382 21.8313 -0.0417 C26.8195 -0.0499 31.8076 -0.0523 36.7958 -0.0516 C41.9456 -0.051 47.0954 -0.0615 52.2453 -0.0773 C56.664 -0.0904 61.0827 -0.0958 65.5014 -0.0951 C68.1418 -0.0949 70.7821 -0.0977 73.4224 -0.1083 C75.9046 -0.118 78.3865 -0.1181 80.8686 -0.1108 C81.7805 -0.1097 82.6924 -0.1121 83.6042 -0.1182 C84.8473 -0.1258 86.0897 -0.1213 87.3328 -0.1135 C87.514 -0.1161 87.514 -0.1161 88.4311 -0.1291 C90.1382 -0.1056 91.0267 0.028 92.4053 1.0708 C93.1664 2.1337 93.1664 2.1337 93.1781 3.3876 C93.0711 3.8195 92.9641 4.2513 92.8539 4.6962 C92.7546 5.1306 92.6554 5.565 92.5531 6.0126 C92.1664 7.1337 92.1664 7.1337 91.1664 8.1337 C89.9106 8.2346 88.7096 8.2728 87.453 8.2674 C87.2593 8.2686 87.2593 8.2686 86.2791 8.2743 C84.974 8.2806 83.669 8.2798 82.3639 8.279 C81.431 8.282 80.4982 8.2854 79.5653 8.2892 C77.0261 8.298 74.4869 8.3003 71.9476 8.301 C69.8302 8.3019 67.7129 8.3056 65.5955 8.3091 C60.6011 8.3173 55.6068 8.3197 50.6124 8.319 C45.4552 8.3184 40.2981 8.329 35.1409 8.3448 C30.7179 8.3578 26.295 8.3632 21.872 8.3626 C19.2283 8.3623 16.5846 8.3652 13.9409 8.3757 C11.4547 8.3854 8.9687 8.3855 6.4824 8.3782 C5.569 8.3772 4.6555 8.3796 3.742 8.3856 C2.4967 8.3933 1.252 8.3887 0.0067 8.381 C-0.1748 8.3835 -0.1748 8.3835 -1.0937 8.3965 C-2.7977 8.3731 -3.6884 8.2443 -5.0614 7.1988 C-6.0268 5.8673 -6.0442 5.1347 -5.9586 3.5087 C-5.9406 3.0627 -5.9225 2.6167 -5.9039 2.1572 C-5.8807 1.8194 -5.8575 1.4817 -5.8336 1.1337 C-3.972 -0.0699 -2.1415 -0.0091 0 0 Z " fill="currentColor" transform="translate(60.8336181640625,292.8662872314453)"/>
<path d="M0 0 C5.3851 3.9633 9.6147 9.3666 11 16 C11.8987 23.1914 12.0852 30.772 8 37 C7.8013 37.3216 7.6026 37.6432 7.3979 37.9746 C2.9768 45.0352 -3.0097 49.7888 -11.2305 51.7188 C-18.2347 52.832 -26.0523 52.195 -32.1592 48.2515 C-38.1456 43.7734 -44.1403 37.7954 -45.625 30.25 C-46.831 21.339 -45.9181 13.7987 -40.5908 6.3674 C-30.2409 -7.1518 -14.0051 -9.4654 0 0 Z M-33.4375 9.3125 C-34.2617 10.5938 -34.2617 10.5938 -35 12 C-35.2952 12.5259 -35.5904 13.0519 -35.8945 13.5938 C-38.478 18.7843 -39.0872 23.8371 -37.3086 29.332 C-35.3591 34.5548 -32.7555 38.0397 -28 41 C-27.7175 41.184 -27.4349 41.368 -27.1438 41.5576 C-22.3608 44.3549 -15.0671 43.9324 -9.8115 42.7275 C-4.47 40.8987 -0.7351 35.7153 2 31 C3.8516 26.7887 3.9433 21.1165 2.6177 16.7368 C0.2817 10.919 -3.4458 6.8414 -9 4 C-10.7047 3.3252 -12.1758 3.0882 -14 3 C-14.2494 2.9691 -14.2494 2.9691 -15.5117 2.8125 C-21.6099 2.3576 -29.3455 4.5595 -33.4375 9.3125 Z " fill="currentColor" transform="translate(403,320)"/>
<path d="M0 0 C0.2904 0.0014 0.2904 0.0014 1.7598 0.0084 C1.9219 0.0071 1.9219 0.0071 2.7425 0.0006 C3.8286 -0.0043 4.9132 0.0122 5.9991 0.0286 C6.7777 0.0294 7.5564 0.0289 8.335 0.0272 C10.4486 0.0264 12.5618 0.044 14.6753 0.065 C16.8841 0.0837 19.0929 0.0855 21.3017 0.089 C25.4844 0.0984 29.6668 0.123 33.8494 0.1531 C38.6111 0.1866 43.3728 0.2031 48.1346 0.2182 C57.9299 0.2495 67.725 0.3023 77.5201 0.3691 C77.8501 1.0291 77.8501 1.0291 79.5201 4.3691 C78.5935 6.1216 78.0181 7.1297 76.5201 8.3691 C74.0879 8.9913 71.6537 8.9271 69.1588 8.9026 C68.4046 8.9097 67.6504 8.9184 66.8962 8.9287 C64.8527 8.9512 62.8099 8.9483 60.7662 8.9394 C59.0589 8.9343 57.3517 8.9416 55.6443 8.9488 C51.6163 8.9658 47.5887 8.9623 43.5607 8.9456 C39.4073 8.9286 35.2551 8.9445 31.1019 8.9768 C27.5332 9.0035 23.9647 9.0108 20.3959 9.0023 C18.2656 8.9973 16.1359 8.9995 14.0057 9.0201 C12.0024 9.0384 10.0007 9.0324 7.9975 9.0079 C7.2634 9.0029 6.5292 9.0063 5.7953 9.019 C3.6134 9.0537 1.6092 9.0281 -0.4799 8.3691 C-1.9368 6.8651 -2.7552 5.3229 -3.4799 3.3691 C-1.9197 0.4789 -1.9197 0.4789 0 0 Z " fill="currentColor" transform="translate(94.47986793518066,315.63085651397705)"/>
<path d="M0 0 C0.1989 0.0025 0.1989 0.0025 1.2053 0.0149 C4.5764 0.149 7.2208 0.7972 9.625 3.3125 C12.058 6.8084 12.2275 11.208 11.625 15.3125 C10.4817 18.6353 8.3336 21.2262 5.2109 22.8633 C1.7608 23.8405 -2.0378 23.6726 -5.375 22.3125 C-8.3367 20.2327 -10.9579 16.5827 -11.6133 13.0156 C-11.8418 8.5423 -10.3534 5.6196 -7.375 2.3125 C-4.9507 0.2633 -3.0567 -0.0442 0 0 Z M-4.375 9.3125 C-4.3516 10.8203 -4.3516 10.8203 -4 12.4375 C-3.8891 12.9763 -3.7783 13.5152 -3.6641 14.0703 C-3.5687 14.4802 -3.4733 14.8902 -3.375 15.3125 C-2.4198 15.5348 -1.4606 15.7399 -0.5 15.9375 C0.0337 16.0535 0.5673 16.1695 1.1172 16.2891 C2.625 16.3125 2.625 16.3125 3.8047 15.4922 C5.1775 13.518 4.9859 11.6235 4.625 9.3125 C3.9375 8 3.9375 8 2.625 7.3125 C-0.2983 6.856 -2.555 6.6952 -4.375 9.3125 Z " fill="currentColor" transform="translate(385.375,331.6875)"/>
<path d="M0 0 C3.3649 3.1967 5.5142 6.0863 5.8906 10.7617 C5.7399 15.0137 3.3268 17.8006 0.6406 20.8945 C-2.0977 23.4128 -5.8924 23.9272 -9.4971 23.9526 C-12.9272 23.7236 -15.35 21.9894 -17.7422 19.6641 C-20.5192 16.1782 -21.3702 12.5099 -21 8.1367 C-20.3253 4.1565 -17.6006 1.2749 -14.4844 -1.1133 C-9.7068 -4.1479 -4.4541 -3.3406 0 0 Z M-12.4844 6.8867 C-13.4225 8.5838 -13.7196 9.9592 -13.4844 11.8867 C-12.5196 13.8043 -11.4152 14.9412 -9.4844 15.8867 C-7.3662 15.9176 -5.5028 15.5057 -3.4844 14.8867 C-2.2166 9.5928 -2.2166 9.5928 -3.1719 7.0742 C-6.0401 4.4792 -9.5481 4.0745 -12.4844 6.8867 Z " fill="currentColor" transform="translate(253.484375,335.11328125)"/>
</svg>
