<?xml version="1.0" encoding="UTF-8"?>
<!-- Generator: visioncortex VTracer 0.6.12 -->
<svg version="1.1" xmlns="http://www.w3.org/2000/svg" width="1613" height="423">
  <rect width="100%" height="100%" fill="#ffffff"/>
  <!-- ntg-wordmark | uso: color: #3d4726 via CSS -->
  <title>ntg-wordmark</title>
<path d="M0 0 C6.0969 4.9658 9.8092 10.8812 10.7056 18.8105 C11.1912 26.1612 9.7003 33.3537 5.9692 39.7007 C5.7333 40.1059 5.4973 40.5112 5.2542 40.9287 C3.3415 43.8955 1.0348 45.7487 -2.2183 47.1382 C-4.7981 47.4651 -7.1133 46.9009 -9.2651 45.4155 C-11.5182 42.9605 -11.6459 40.2025 -11.5229 36.9858 C-11.1975 35.0122 -10.5922 33.5568 -9.7183 31.7632 C-7.804 27.7057 -7.3039 23.5659 -8.2183 19.1382 C-8.869 17.5158 -9.3848 16.7796 -10.7769 15.7319 C-16.2146 13.492 -21.7872 14.9913 -27.0308 17.0757 C-33.8544 20.0168 -39.5461 24.4052 -45.2183 29.1382 C-45.6538 29.4993 -46.0893 29.8604 -46.5381 30.2324 C-59.2558 40.9063 -69.1076 53.3622 -78.2183 67.1382 C-78.4277 67.4532 -78.6372 67.7681 -78.853 68.0927 C-89.1792 83.6587 -97.0874 101.1909 -102.2183 119.1382 C-102.3791 119.6607 -102.5399 120.1833 -102.7056 120.7217 C-106.4605 133.0355 -108.0143 149.3736 -101.8291 161.1694 C-100.485 163.301 -99.0501 164.7631 -96.7456 165.8022 C-88.8627 167.5361 -82.0806 165.0356 -75.2183 161.1382 C-57.3911 149.7024 -40.2567 130.4779 -31.2183 111.1382 C-36.902 111.4732 -42.5264 111.9973 -48.1519 112.8726 C-48.5831 112.9395 -49.0144 113.0064 -49.4587 113.0754 C-51.6153 113.4129 -53.7696 113.7611 -55.9224 114.1218 C-59.9926 114.7866 -64.0122 115.2859 -68.1401 115.3569 C-68.5059 115.3688 -68.8716 115.3806 -69.2485 115.3928 C-71.8458 115.3861 -73.2902 114.7072 -75.2808 113.0757 C-77.3874 110.4936 -77.7769 108.2564 -77.7847 104.9819 C-76.9218 102.1733 -75.3412 100.1542 -73.2183 98.1382 C-71.4075 97.2052 -69.6141 96.842 -67.6167 96.4897 C-67.0573 96.3764 -66.4979 96.2631 -65.9215 96.1464 C-64.0252 95.7778 -62.1246 95.4489 -60.2183 95.1382 C-59.8777 95.0824 -59.537 95.0267 -59.1861 94.9693 C-53.8317 94.1021 -48.4612 93.3661 -43.0818 92.6729 C-41.8279 92.5112 -40.5742 92.3477 -39.3205 92.1841 C-29.1617 90.8645 -19.0201 89.6714 -8.7808 89.2007 C-8.3267 89.1768 -7.8727 89.1529 -7.4048 89.1284 C-1.7869 88.8528 5.1421 88.5395 9.6567 92.5132 C10.9891 94.4377 11.8924 95.7583 11.7817 98.1382 C11.2099 100.5045 10.3612 102.279 8.7817 104.1382 C3.7239 107.0551 -3.5232 106.7576 -9.2183 107.1382 C-9.3536 107.6371 -9.489 108.1359 -9.6284 108.6499 C-15.07 127.3418 -28.9926 144.4732 -42.8472 157.7827 C-43.9369 158.8601 -44.9671 159.9535 -45.9956 161.0874 C-57.0095 172.9877 -72.5647 183.2148 -89.0425 184.3765 C-97.5554 184.7018 -105.5816 183.149 -112.5308 177.9507 C-120.6034 170.3214 -125.1058 159.3906 -125.4336 148.3466 C-125.4374 148.124 -125.4374 148.124 -125.4565 146.9976 C-125.4664 146.5182 -125.4762 146.0388 -125.4864 145.5449 C-125.6821 133.4986 -124.9963 122.6004 -121.2183 111.1382 C-121.0948 110.7611 -120.9712 110.384 -120.844 109.9955 C-117.2208 99.0153 -112.8541 88.3776 -107.6714 78.0439 C-107.2141 77.1299 -106.7615 76.2136 -106.3096 75.2969 C-97.3113 57.1272 -85.1531 40.8291 -71.2183 26.1382 C-70.973 25.8787 -70.7278 25.6192 -70.4751 25.3518 C-65.9616 20.6083 -61.1341 16.5083 -55.9058 12.5757 C-55.5332 12.2937 -55.1606 12.0117 -54.7768 11.7212 C-39.874 0.4618 -18.1297 -12.8252 0 0 Z " fill="#a2c037" transform="translate(1353.21826171875,120.86181640625)"/>
<path d="M0 0 C1.9973 1.0073 2.9607 2.0287 4 4 C5.002 10.2222 3.1379 15.1131 0.6328 20.6875 C0.2778 21.5064 -0.0759 22.326 -0.4283 23.146 C-1.1749 24.876 -1.9302 26.6018 -2.693 28.3247 C-3.8915 31.0318 -5.0699 33.7473 -6.2451 36.4646 C-7.6089 39.615 -8.9765 42.7636 -10.3505 45.9096 C-12.8557 51.6475 -15.2975 57.409 -17.6862 63.1965 C-18.632 65.4881 -19.5841 67.777 -20.5352 70.0664 C-20.7257 70.5254 -20.9161 70.9845 -21.1124 71.4574 C-25.3117 81.5739 -29.5433 91.6769 -33.7977 101.7703 C-35.1239 104.9168 -36.4454 108.065 -37.7588 111.2168 C-38.3996 112.7494 -39.0476 114.2788 -39.6989 115.8069 C-39.9779 116.4654 -40.2539 117.1252 -40.5265 117.7864 C-42.6905 123.0285 -42.6905 123.0285 -44.4922 124.3984 C-47.1444 125.4566 -49.3495 124.8545 -52 124 C-53.6313 123.2871 -54.2556 122.6126 -55 121 C-55.9914 114.2281 -53.8164 108.1473 -51.6875 101.8125 C-51.5085 101.2694 -51.3295 100.7262 -51.1451 100.1666 C-46.7176 86.7319 -41.7479 73.5132 -36.5403 60.3646 C-35.9507 58.8756 -35.362 57.3862 -34.7732 55.8969 C-32.1575 49.2851 -29.5254 42.68 -26.8702 36.084 C-26.6201 35.4627 -26.37 34.8414 -26.1199 34.2201 C-25.9962 33.9128 -25.8725 33.6055 -25.7451 33.2889 C-24.8758 31.1278 -24.0128 28.9642 -23.152 26.7997 C-21.9763 23.845 -20.7877 20.8958 -19.5894 17.9502 C-19.1445 16.8507 -18.7039 15.7494 -18.268 14.6463 C-13.5238 2.6599 -13.5238 2.6599 -7.9543 -0.6149 C-5.4828 -1.6123 -2.4645 -0.6916 0 0 Z " fill="#a2c037" transform="translate(1499,120)"/>
<path d="M0 0 C2.0911 0.9348 3.5584 2.0118 4.5105 4.1423 C5.754 9.5083 3.5273 13.9661 1.5625 18.875 C1.2194 19.7625 0.8776 20.6505 0.5371 21.5391 C-0.2937 23.6988 -1.1419 25.851 -2 28 C-1.6611 27.9853 -1.3222 27.9705 -0.9731 27.9553 C2.2755 27.8152 5.5243 27.6824 8.7735 27.557 C10.4425 27.4924 12.1113 27.4245 13.78 27.3518 C20.2714 27.0706 26.7341 26.8151 33.2188 27.3398 C33.4364 27.3556 33.4364 27.3556 34.5377 27.4352 C38.0708 27.789 40.4807 28.9252 43.0391 31.4688 C44.4811 33.7666 44.5945 35.6826 44.5039 38.3516 C43.8453 40.5062 42.877 41.7452 41 43 C39.4516 43.3688 37.9875 43.2808 36.4062 43.1875 C35.4609 43.1617 34.5156 43.1363 33.5703 43.1113 C33.0705 43.0927 32.5706 43.0741 32.0557 43.0549 C21.9282 42.6973 12.0561 43.296 2 44.5 C1.3965 44.572 0.793 44.6441 0.1711 44.7183 C-3.2217 45.1272 -6.612 45.5531 -10 46 C-21.5931 71.3951 -31.3414 97.5854 -40.1835 124.0533 C-40.5532 125.1596 -40.9241 126.2655 -41.2951 127.3714 C-43.9891 135.4197 -46.4956 143.5112 -48.8008 151.6797 C-48.9087 152.0568 -49.0165 152.4339 -49.1277 152.8225 C-50.4699 157.5346 -51.5934 162.1572 -51.6346 167.0911 C-51.6901 169.0903 -52.013 170.268 -53.3398 171.7266 C-55.3044 173.4408 -56.9618 173.486 -59.5078 173.3594 C-62.0678 172.7428 -63.5876 171.1657 -65 169 C-76.5685 138.3207 -43.521 76.9833 -31 49 C-34.8418 48.9102 -38.5728 48.8557 -42.375 49.5 C-53.5561 51.1925 -53.5561 51.1925 -57.7852 49.1289 C-59.8828 47.3468 -60.9026 45.9891 -61.1758 43.2148 C-60.8716 40.031 -60.3129 37.956 -57.9502 35.6854 C-56.1622 34.3957 -54.173 34.1463 -52.0312 33.8164 C-51.5494 33.734 -51.0676 33.6517 -50.5712 33.5668 C-47.1115 33.0296 -43.7739 32.9498 -40.2812 33.0273 C-27.7092 33.1116 -27.7092 33.1116 -23 30 C-17.8504 24.4854 -15.8044 16.2629 -13.5738 9.2388 C-12.0804 4.7302 -10.1532 1.7943 -5.9248 -0.6118 C-3.9719 -1.4315 -1.9267 -0.6403 0 0 Z " fill="#a2c037" transform="translate(813,126)"/>
<path d="M0 0 C4.3751 1.2625 8.1852 0.913 12.6488 0.3226 C14.9437 0.0239 17.2444 -0.2164 19.5464 -0.4534 C20.026 -0.5028 20.5056 -0.5522 20.9998 -0.6032 C29.2503 -1.4093 37.5525 -1.3282 45.8345 -1.3066 C48.3299 -1.3007 50.8247 -1.3181 53.32 -1.341 C55.2847 -1.3558 57.2493 -1.3566 59.2141 -1.3535 C60.1349 -1.354 61.0558 -1.3591 61.9766 -1.3693 C68.2323 -1.4304 73.7661 -1.0085 78.7918 3.1548 C80.6002 4.9427 81.3727 6.2517 81.4946 8.8176 C81.2239 11.2287 80.9497 13.1937 79.5923 15.2395 C77.883 16.3508 76.503 15.9733 74.5962 15.634 C62.7779 13.909 50.6669 15.3061 38.8333 16.2831 C37.6014 16.3836 36.3693 16.4807 35.137 16.5764 C34.3206 16.6399 33.5043 16.7034 32.688 16.7668 C32.2849 16.7982 31.8819 16.8295 31.4666 16.8618 C29.4527 17.0207 27.4407 17.1904 25.4297 17.3822 C25.0373 17.4196 24.645 17.4569 24.2407 17.4955 C23.4559 17.5703 22.671 17.6455 21.8862 17.7209 C19.5797 17.9329 17.2871 18.059 14.9718 18.1177 C4.2826 18.409 4.2826 18.409 1.2412 21.0059 C-1.2255 24.1612 -2.2938 27.8593 -3.4663 31.634 C-3.8919 32.8226 -4.3245 34.0088 -4.7637 35.1924 C-5.6566 37.6182 -6.5167 40.0519 -7.353 42.4978 C-8.9627 47.1456 -10.9039 51.6369 -12.8554 56.1488 C-26.4717 87.8619 -38.7705 120.365 -49.7788 153.0715 C-49.8712 153.3436 -49.8712 153.3436 -50.339 154.7202 C-52.2568 160.3874 -54.0107 165.9377 -54.8111 171.886 C-55.1547 174.0546 -55.3222 174.7794 -57.0591 176.2617 C-58.6652 177.0451 -59.7496 177.3368 -61.5288 177.384 C-62.0122 177.4124 -62.4956 177.4408 -62.9937 177.47 C-65.5578 176.7302 -67.1071 175.1985 -68.5913 173.009 C-69.1949 171.1542 -69.2113 169.4489 -69.1538 167.509 C-69.14 166.9412 -69.1261 166.3734 -69.1118 165.7883 C-68.6558 156.9215 -66.1054 148.4711 -63.5913 140.009 C-63.416 139.4162 -63.2406 138.8234 -63.06 138.2126 C-51.2836 98.5949 -35.8085 59.9973 -19.5913 22.009 C-24.7373 22.8526 -29.8825 23.7007 -35.0272 24.552 C-36.2738 24.7582 -37.5205 24.9641 -38.7672 25.17 C-55.0379 27.8597 -55.0379 27.8597 -62.3765 29.2981 C-62.8608 29.3929 -63.3451 29.4877 -63.844 29.5854 C-65.9811 30.0073 -68.115 30.4408 -70.2463 30.8909 C-74.9339 31.8588 -79.8104 32.7393 -84.5913 32.009 C-86.6893 30.6233 -87.7298 29.3796 -88.5913 27.009 C-88.9982 23.8754 -88.4887 21.2892 -86.6589 18.679 C-81.6396 13.9199 -75.2686 13.3074 -68.6615 12.1829 C-67.3013 11.9482 -65.9437 11.6996 -64.5859 11.4508 C-60.2911 10.664 -55.9894 9.9213 -51.6842 9.1938 C-50.5946 9.0096 -49.5052 8.8246 -48.4158 8.6393 C-20.8239 3.954 -20.8239 3.954 -13.2801 3.3848 C-10.7899 3.1637 -9.2004 2.5031 -7.4429 0.7278 C-4.9695 -1.3598 -2.8892 -0.9526 0 0 Z " fill="#a2c037" transform="translate(1133.59130859375,128.990966796875)"/>
<path d="M0 0 C1.7862 1.0529 2.3406 2.0546 3 4 C3.6121 10.277 2.5634 15.7006 0.6562 21.6445 C0.4083 22.4502 0.1615 23.2562 -0.0842 24.0626 C-0.6055 25.7659 -1.1342 27.4666 -1.6691 29.1656 C-2.5191 31.8665 -3.3505 34.5728 -4.1785 37.2805 C-4.4585 38.1955 -4.7385 39.1105 -5.0185 40.0254 C-5.1566 40.4767 -5.2948 40.9281 -5.4371 41.3931 C-5.8548 42.7556 -6.2741 44.1177 -6.694 45.4796 C-8.6571 51.8492 -10.5597 58.232 -12.3758 64.6454 C-12.8229 66.2242 -13.2735 67.8021 -13.7244 69.3799 C-15.3632 75.132 -16.9733 80.8915 -18.5566 86.6592 C-24.9922 110.1001 -31.4737 133.4904 -39.4667 156.4572 C-39.9281 157.7856 -40.3858 159.1152 -40.8428 160.4451 C-43.8384 169.1336 -47.0832 177.6277 -51.1289 185.8867 C-51.2871 186.2162 -51.4453 186.5457 -51.6083 186.8852 C-54.6007 193.0613 -58.488 198.0983 -65.0508 200.5469 C-69.1027 201.6363 -73.3656 201.4043 -77.1001 199.4136 C-87.329 192.7692 -90.2952 180.4401 -92.7422 169.2306 C-93.5932 165.1681 -94.2781 161.0739 -94.9609 156.9805 C-95.0475 156.463 -95.134 155.9455 -95.2232 155.4123 C-97.0886 144.1566 -98.3493 132.8717 -99.4138 121.5157 C-99.5654 119.9067 -99.7204 118.2981 -99.8763 116.6895 C-102.1505 93.1642 -103.6861 69.5963 -105 46 C-112.957 64.4225 -120.0103 83.1266 -126.8909 101.9706 C-127.8834 104.6866 -128.8878 107.398 -129.8957 110.1084 C-137.7931 131.3647 -144.7721 153.009 -150.5625 174.9375 C-150.6848 175.3947 -150.8072 175.852 -150.9332 176.3231 C-152.2324 181.2159 -153.2904 185.9827 -153.5986 191.0491 C-153.8298 194.0978 -154.9376 195.905 -156.9648 198.125 C-159.2836 200.085 -161.4019 200.413 -164.4062 200.332 C-167.2297 199.7438 -168.8923 198.231 -170.5105 195.8883 C-171.3626 194.3419 -171.5859 192.7238 -171.7617 190.9961 C-171.8018 190.6061 -171.8419 190.2161 -171.8832 189.8143 C-172.2614 184.7325 -171.1204 179.9273 -170 175 C-169.7697 173.9477 -169.5396 172.8954 -169.3096 171.843 C-159.3731 127.1173 -142.6909 82.9351 -119.2401 33.2086 C-118.8413 32.4251 -118.4466 31.6395 -118.0568 30.8515 C-115.2457 25.2184 -111.1158 19.41 -105 17 C-101.2551 16.3975 -97.323 16.0317 -93.957 18.0586 C-88.8949 21.7333 -86.7118 26.5934 -85.7361 32.6338 C-85.4712 34.5386 -85.2282 36.4453 -84.9976 38.3545 C-84.9546 38.7034 -84.9117 39.0523 -84.8674 39.4118 C-84.0286 46.261 -83.4525 53.1193 -82.9843 60.0037 C-82.846 62.0356 -82.7023 64.067 -82.557 66.0983 C-82.3764 68.6268 -82.1969 71.1554 -82.0191 73.6841 C-77.2335 141.6704 -77.2335 141.6704 -71.0508 171.3828 C-70.9593 171.8266 -70.8678 172.2704 -70.7735 172.7277 C-70.6862 173.1335 -70.599 173.5394 -70.509 173.9575 C-70.4718 174.132 -70.4718 174.132 -70.2832 175.0147 C-69.9739 176.0908 -69.5286 177.0152 -69 178 C-62.8964 161.9967 -57.1822 145.9083 -52.0625 129.5625 C-51.9378 129.1645 -51.8131 128.7665 -51.6847 128.3565 C-48.8211 119.2089 -46.0107 110.045 -43.207 100.8789 C-42.3824 98.1835 -41.5575 95.4881 -40.7324 92.7928 C-40.3756 91.6268 -40.0191 90.4608 -39.6626 89.2948 C-34.7558 73.2537 -29.6385 57.2806 -24.5 41.3125 C-24.3024 40.6981 -24.1047 40.0837 -23.9011 39.4508 C-22.5712 35.3169 -21.2394 31.1836 -19.9062 27.0508 C-19.7363 26.5234 -19.5663 25.9961 -19.3912 25.4527 C-18.4294 22.4696 -17.4613 19.4886 -16.4886 16.5089 C-15.9684 14.9023 -15.4587 13.2925 -14.9492 11.6825 C-14.5998 10.5958 -14.2502 9.5092 -13.9004 8.4226 C-13.744 7.9202 -13.5877 7.4179 -13.4266 6.9003 C-12.3852 3.6974 -11.4086 1.2372 -8.4258 -0.582 C-5.4571 -1.4523 -2.8627 -1.0744 0 0 Z " fill="#a2c037" transform="translate(481,112)"/>
<path d="M0 0 C0.1737 0.0064 0.1737 0.0064 1.0527 0.0388 C3.2451 0.2121 4.8035 0.6629 6.5 2.0625 C8.2779 4.3564 8.5561 6.4311 8.4062 9.2852 C7.6806 14.1625 5.7063 18.8974 4 23.5 C4.3184 23.4639 4.3184 23.4639 5.9297 23.2812 C13.4988 22.522 21.078 22.3342 28.681 22.2678 C29.8455 22.256 31.0101 22.239 32.1745 22.2166 C44.9602 21.9847 44.9602 21.9847 49 25.5 C50.1246 27.2848 50.1958 28.8384 50.25 30.9375 C50.2629 31.2359 50.2629 31.2359 50.3281 32.7461 C49.9606 34.7104 49.5805 35.6476 48.0894 36.9573 C45.8712 38.0624 43.4083 37.6885 40.9928 37.5547 C32.6826 37.1243 24.5564 37.9393 16.3125 38.9375 C15.7461 39.0053 15.1797 39.073 14.5962 39.1428 C7.9037 39.949 7.9037 39.949 5.4192 40.3133 C4.4169 40.4451 3.4088 40.536 2.3997 40.5975 C-1.4906 40.9468 -1.4906 40.9468 -2.8382 42.41 C-3.5244 43.7132 -4.0019 44.9962 -4.4648 46.3945 C-4.6596 46.9165 -4.8544 47.4386 -5.0551 47.9764 C-5.7077 49.747 -6.3225 51.5285 -6.9375 53.3125 C-7.2776 54.2637 -7.6214 55.2135 -7.9658 56.1631 C-9.2561 59.7216 -10.5069 63.293 -11.7432 66.8706 C-12.7658 69.829 -13.7998 72.7833 -14.8379 75.7363 C-21.2114 93.8844 -27.5315 112.0613 -32.8125 130.5625 C-32.9697 131.1099 -33.1269 131.6573 -33.2889 132.2212 C-35.6512 140.5122 -37.6513 148.8919 -38.375 157.5 C-38.6852 159.6869 -39.0428 160.9839 -40.6875 162.5 C-42.9637 163.8161 -45.0249 163.8075 -47.5391 163.1758 C-50.1482 161.9689 -51.6436 160.329 -52.6953 157.6313 C-54.9888 149.1155 -52.5732 138.9582 -51 130.5 C-51.1049 130.6279 -51.1049 130.6279 -51.6357 131.2751 C-58.9138 140.0294 -69.111 151.4174 -81.1787 152.6172 C-86.3442 152.9075 -90.4469 151.8598 -94.4375 148.5 C-98.8399 144.4099 -100.821 139.3191 -101.168 133.3711 C-101.1845 131.7314 -101.1417 130.1327 -101 128.5 C-101.1847 128.7756 -101.3695 129.0512 -101.5598 129.3352 C-116.8811 151.9191 -116.8811 151.9191 -128 154.5 C-132.8164 155.3992 -137.4161 155.0238 -141.6746 152.4863 C-146.0109 149.4245 -148.0904 143.56 -149 138.5 C-150.6925 124.5485 -145.0299 110.2652 -140 97.5 C-139.8438 97.1033 -139.6877 96.7066 -139.5268 96.2979 C-138.5492 93.8301 -137.5424 91.3767 -136.5023 88.9347 C-136.1729 88.1578 -135.8483 87.3787 -135.5292 86.5975 C-133.4205 81.4719 -131.0671 77.2095 -126 74.5 C-122.7552 74.1334 -120.3353 74.5691 -117.6328 76.4531 C-115.9791 78.1639 -115.0118 79.6286 -114.979 82.053 C-115.6308 86.2066 -116.7227 89.9824 -118.267 93.8913 C-118.6653 94.8999 -119.054 95.9118 -119.4408 96.9248 C-120.2649 99.0781 -121.1006 101.2267 -121.9375 103.375 C-130.5113 125.4059 -130.5113 125.4059 -130.125 133.5625 C-130.116 133.9512 -130.107 134.3398 -130.0977 134.7402 C-130.0749 135.6605 -130.0391 136.5803 -130 137.5 C-114.9406 122.5467 -103.2425 106.1361 -92.5586 87.8281 C-85.6856 76.0559 -85.6856 76.0559 -82 74.5 C-79.1746 73.7956 -77.0405 73.8888 -74.5039 75.3789 C-72.4913 77.1065 -71.1924 78.2402 -70.7756 80.9688 C-70.5762 85.4639 -71.6765 89.2032 -73.2789 93.3198 C-73.9952 95.1698 -74.6641 97.0372 -75.3398 98.9023 C-75.4793 99.2848 -75.6188 99.6672 -75.7625 100.0612 C-80.386 112.7794 -82.9819 124.9978 -84 138.5 C-78.87 136.8389 -74.8654 135.1428 -70.9375 131.3125 C-70.5176 130.9189 -70.0977 130.5252 -69.665 130.1196 C-65.8382 126.4755 -62.3678 122.5655 -59 118.5 C-58.1631 117.4985 -57.3242 116.4989 -56.4814 115.5024 C-55.968 114.8945 -55.458 114.2837 -54.9521 113.6694 C-53.7323 112.2175 -52.7799 111.1691 -51 110.5 C-49.4922 110.4023 -49.4922 110.4023 -47.875 110.4375 C-47.3362 110.4465 -46.7973 110.4555 -46.2422 110.4648 C-45.8323 110.4764 -45.4223 110.488 -45 110.5 C-44.869 109.8832 -44.738 109.2664 -44.603 108.6309 C-42.2736 98.3046 -38.6459 88.4101 -35.132 78.4423 C-34.4576 76.5238 -33.7898 74.603 -33.122 72.6822 C-29.6948 62.8329 -26.2387 53.036 -22 43.5 C-22.2867 43.5606 -22.2867 43.5606 -23.7373 43.8672 C-42.9438 47.8908 -42.9438 47.8908 -50.0625 47.9375 C-50.5192 47.9472 -50.9758 47.9568 -51.4463 47.9668 C-54.2207 47.8946 -56.1147 47.2018 -58.2478 45.3982 C-59.4978 43.9055 -59.5849 42.4191 -59.5 40.5625 C-59.5077 40.3952 -59.5077 40.3952 -59.5469 39.5488 C-59.5147 37.4647 -58.8897 36.0096 -57.6055 34.375 C-54.4892 31.5535 -50.2719 31.2788 -46.2662 30.6653 C-44.7894 30.4339 -43.3211 30.1709 -41.8511 29.9001 C-37.2348 29.0686 -32.7433 28.4166 -28.0508 28.3203 C-18.9038 27.9784 -18.9038 27.9784 -16 25.5 C-12.2224 20.5358 -10.8114 13.9307 -9.1671 8.0299 C-8.3244 5.1622 -7.4341 2.9762 -5.0286 1.0544 C-3.3246 0.1359 -1.9202 -0.1077 0 0 Z " fill="#a2c037" transform="translate(614,136.5)"/>
<path d="M0 0 C2.4951 -0.2419 4.0386 -0.2148 6.1211 1.2734 C8.8422 3.9551 10.7696 6.078 10.9688 9.9766 C10.8829 14.3634 8.5999 17.3175 5.5586 20.3047 C3.0303 22.1902 0.6839 22.4766 -2.4062 22.1641 C-5.3942 21.709 -7.7078 20.9194 -9.6562 18.5273 C-11.0694 15.8536 -11.5198 13.2335 -11.3438 10.2266 C-10.0237 6.2879 -6.6042 2.4595 -2.9688 0.4766 C-1.9782 0.3242 -0.9883 0.1666 0 0 Z " fill="#a2c037" transform="translate(735.34375,159.7734375)"/>
<path d="M0 0 C1.7282 1.0441 2.3837 2.091 3 4 C3.6379 7.4259 3.8418 10.4736 2.1211 13.5938 C-0.4859 16.5536 -3.3478 17.9696 -7.2852 18.2539 C-9.9877 17.8538 -11.3811 16.7261 -13.1133 14.6602 C-14.8396 11.428 -14.8976 8.4713 -14 5 C-10.2767 -0.5713 -6.3119 -1.841 0 0 Z " fill="#a2c037" transform="translate(832,181)"/>
<path d="M0 0 C1.0171 -0.0073 2.0342 -0.0159 3.0513 -0.0257 C5.8076 -0.0479 8.5636 -0.0508 11.3199 -0.0489 C13.6236 -0.0488 15.9272 -0.0574 18.2308 -0.0657 C23.6669 -0.0849 29.1029 -0.0878 34.5391 -0.0811 C40.1413 -0.0744 45.7429 -0.0973 51.345 -0.1344 C56.1604 -0.1651 60.9756 -0.1764 65.7912 -0.1725 C68.6649 -0.1705 71.538 -0.1759 74.4116 -0.2004 C77.1148 -0.2227 79.817 -0.2208 82.5203 -0.2005 C83.5099 -0.1971 84.4996 -0.2022 85.4891 -0.2165 C93.8767 -0.3295 93.8767 -0.3295 97.2066 2.7631 C98.5476 4.2797 99.0459 5.0305 99.2149 7.0581 C98.9476 9.9692 98.0627 11.7707 95.9895 13.7761 C94.3409 14.941 92.6814 14.8404 90.7204 14.8143 C90.2878 14.8204 89.8552 14.8265 89.4095 14.8328 C87.963 14.8494 86.5174 14.8446 85.0708 14.8398 C84.0325 14.8472 82.9942 14.8558 81.956 14.8655 C79.1377 14.8877 76.3198 14.8907 73.5014 14.8888 C71.148 14.8886 68.7947 14.8972 66.4413 14.9055 C60.8887 14.9248 55.3363 14.9277 49.7837 14.9209 C44.0571 14.9143 38.3311 14.9371 32.6046 14.9742 C27.6864 15.0049 22.7685 15.0163 17.8502 15.0124 C14.9134 15.0103 11.9771 15.0158 9.0404 15.0403 C6.2781 15.0625 3.5168 15.0607 0.7545 15.0403 C-0.2582 15.0369 -1.2709 15.042 -2.2834 15.0563 C-9.8563 15.1559 -9.8563 15.1559 -12.4333 13.3756 C-14.4553 11.0347 -15.1329 9.404 -14.9216 6.2949 C-14.4947 3.8266 -13.3746 2.4892 -11.3938 1.0653 C-7.8903 -0.4706 -3.7566 -0.0128 0 0 Z " fill="#a2c037" transform="translate(189.921630859375,183.580078125)"/>
<path d="M0 0 C5.7907 3.855 9.1577 10.4655 10.6001 17.1035 C13.9681 35.1248 6.8257 54.3736 -2.9585 69.2559 C-9.2234 78.328 -17.0211 85.8009 -28.0757 88.4746 C-33.1927 89.0691 -38.7238 88.7992 -43.2085 86.0684 C-44.5874 84.9746 -44.5874 84.9746 -45.9585 83.6934 C-46.2161 83.4588 -46.4738 83.2241 -46.7393 82.9824 C-51.7111 78.3257 -53.4595 73.2286 -54.9585 66.6934 C-56.9585 66.6934 -56.9585 66.6934 -58.1443 67.6997 C-58.5793 68.1643 -59.0142 68.6288 -59.4624 69.1074 C-59.956 69.6242 -60.45 70.1406 -60.9443 70.6567 C-61.2016 70.9285 -61.4588 71.2003 -61.7238 71.4803 C-68.9608 79.0885 -76.8249 86.6084 -87.896 87.0684 C-92.3006 87.042 -95.671 85.5895 -98.9585 82.6934 C-103.1712 77.5993 -102.7109 69.8435 -102.2041 63.6201 C-100.4851 50.1347 -93.5107 36.9274 -87.9585 24.6934 C-87.8006 24.3439 -87.6428 23.9944 -87.4801 23.6344 C-86.5594 21.6005 -85.614 19.5803 -84.646 17.5684 C-84.4282 17.102 -84.2105 16.6357 -83.9861 16.1553 C-82.5319 13.2459 -80.8906 11.2042 -77.9585 9.6934 C-74.827 8.9929 -71.3812 9.1258 -68.521 10.6934 C-67.2678 11.9128 -66.9704 12.6156 -66.7032 14.367 C-66.6357 19.6846 -67.73 23.5991 -69.8804 28.4199 C-70.1862 29.1366 -70.4904 29.8539 -70.7933 30.5719 C-71.5886 32.4491 -72.3993 34.3193 -73.2152 36.1877 C-74.6635 39.5073 -76.0923 42.8352 -77.5054 46.1699 C-77.658 46.5294 -77.8105 46.8889 -77.9678 47.2593 C-85.1733 64.3316 -85.1733 64.3316 -84.9585 71.6934 C-73.0686 64.7355 -64.349 54.4358 -55.9585 43.6934 C-55.6443 43.2937 -55.3301 42.8941 -55.0063 42.4824 C-52.6599 39.4974 -50.3392 36.4928 -48.0278 33.4805 C-47.3957 32.6571 -46.7627 31.8343 -46.1289 31.0122 C-45.5355 30.2425 -44.9439 29.4715 -44.3545 28.6987 C-43.1093 27.0848 -41.9056 25.618 -40.3765 24.2676 C-38.4109 22.3627 -37.8276 19.933 -37.021 17.3809 C-34.3899 9.7258 -30.3506 2.9484 -22.874 -0.8589 C-14.9268 -4.333 -7.5846 -4.3648 0 0 Z M-21.3335 19.5059 C-22.5814 22.6907 -22.5245 26.3721 -21.9585 29.6934 C-20.6278 31.9942 -19.0012 33.2431 -16.5835 34.2871 C-14.5999 34.783 -12.8042 34.8037 -10.771 34.7559 C-10.403 34.7513 -10.0349 34.7468 -9.6558 34.7422 C-8.7566 34.7305 -7.8575 34.7126 -6.9585 34.6934 C-5.0429 30.8171 -4.6213 27.4229 -4.646 23.1309 C-4.6299 22.5669 -4.6138 22.0029 -4.5972 21.4219 C-4.5933 18.1422 -4.9055 15.899 -7.1272 13.3972 C-8.8222 11.9621 -10.2164 12.0935 -12.3374 12.2363 C-15.9898 13.266 -19.309 16.3266 -21.3335 19.5059 Z M-31.9585 39.6934 C-32.7749 41.7752 -33.5859 43.8591 -34.396 45.9434 C-34.6261 46.5299 -34.8562 47.1164 -35.0933 47.7207 C-37.09 52.8717 -38.1391 57.1454 -38.146 62.6934 C-38.1582 63.2141 -38.1705 63.7349 -38.1831 64.2715 C-38.1959 67.6507 -37.719 69.7985 -35.9585 72.6934 C-31.7211 73.2343 -28.9601 72.6452 -25.5288 70.0762 C-19.4657 64.9068 -14.553 58.2856 -11.9585 50.6934 C-11.9585 50.0334 -11.9585 49.3734 -11.9585 48.6934 C-12.1015 48.6636 -12.1015 48.6636 -12.8254 48.5132 C-20.3046 46.8916 -25.8799 44.3311 -31.9585 39.6934 Z " fill="#a2c037" transform="translate(890.95849609375,198.306640625)"/>
<path d="M0 0 C1.9529 0.8038 3.0377 1.5155 4.125 3.332 C5.0047 6.0525 4.7136 8.8213 4.5469 11.6367 C4.531 12.9706 4.5381 14.3027 4.5469 15.6367 C4.8027 15.36 5.0585 15.0832 5.322 14.7981 C12.436 7.1833 19.1522 0.3381 30.0186 -0.4573 C34.2609 -0.5631 37.2369 0.4516 40.3599 3.4058 C44.5473 7.6173 46.6265 10.9625 46.7969 17.0117 C46.7302 21.4385 45.2042 24.8216 42.2344 28.0742 C39.2481 29.0696 36.3639 28.4582 33.5273 27.1758 C31.582 25.7 31.3214 23.865 30.9915 21.5667 C30.7974 19.9249 30.6605 18.286 30.5469 16.6367 C26.1287 17.8009 23.064 19.395 19.7344 22.5117 C19.5207 22.71 19.5207 22.71 18.4392 23.7134 C2.5415 38.9505 -7.1842 60.3766 -14.2305 80.8892 C-14.3576 81.2501 -14.4848 81.611 -14.6158 81.9829 C-14.9593 82.96 -15.2935 83.9405 -15.627 84.9211 C-16.8727 87.5079 -18.3948 89.2405 -21.1016 90.2539 C-24.9092 90.8225 -27.2115 90.7614 -30.4102 88.5234 C-30.7543 88.2308 -31.0985 87.9382 -31.4531 87.6367 C-31.6258 87.5135 -31.6258 87.5135 -32.4998 86.8901 C-33.9772 84.9477 -33.783 83.0747 -33.75 80.6953 C-33.745 80.2057 -33.74 79.716 -33.7348 79.2115 C-33.5736 73.7925 -32.2528 68.8637 -30.7031 63.6992 C-30.3997 62.6505 -30.0966 61.6017 -29.7939 60.5527 C-25.7414 46.7043 -21.058 33.0322 -16.3976 19.3789 C-15.4122 16.4902 -14.4312 13.6026 -13.5244 10.688 C-13.3922 10.2685 -13.26 9.849 -13.1238 9.4167 C-12.8985 8.6949 -12.6791 7.9711 -12.4684 7.2449 C-11.4999 4.1608 -9.7428 2.261 -7.1367 0.3828 C-4.5952 -0.7435 -2.6726 -0.6445 0 0 Z " fill="#a2c037" transform="translate(644.453125,199.36328125)"/>
<path d="M0 0 C5.1853 3.0994 8.7601 7.8645 10.8108 13.5251 C14.7256 31.3233 7.4023 50.25 -1.9392 65.2126 C-6.792 72.5952 -12.5326 79.2025 -19.7517 84.3376 C-19.9475 84.477 -19.9475 84.477 -20.9385 85.1824 C-27.7757 89.7472 -35.5495 90.4096 -43.5642 89.3376 C-48.3691 88.0658 -52.0739 84.5422 -54.5642 80.3376 C-59.2576 71.1823 -59.5097 62.4313 -56.9392 52.5876 C-56.8518 52.2451 -56.7645 51.9027 -56.6745 51.5498 C-53.8138 40.4872 -48.541 29.6361 -39.947 21.8611 C-38.2213 20.1728 -37.7428 18.309 -37.1267 16.0251 C-34.9252 8.7903 -31.2091 3.9704 -24.6306 0.2048 C-16.5808 -4.0718 -8.1061 -4.2894 0 0 Z M-21.4158 19.4666 C-23.2619 22.9989 -22.901 27.5786 -21.9392 31.3455 C-21.081 33.6161 -19.5293 34.6495 -17.4626 35.7634 C-13.8627 36.8523 -10.2778 36.6347 -6.5642 36.3376 C-4.8759 32.0643 -4.2249 28.2963 -4.2517 23.7126 C-4.2356 23.1532 -4.2195 22.5937 -4.2029 22.0173 C-4.1991 18.7788 -4.508 16.5184 -6.7017 14.0437 C-8.5925 12.4959 -10.4012 12.7469 -12.7205 12.8845 C-16.5819 13.8335 -19.0785 16.3681 -21.4158 19.4666 Z M-33.5642 40.3376 C-37.4595 49.0787 -40.6506 57.0675 -40.8142 66.7126 C-40.8236 67.1298 -40.8331 67.547 -40.8428 67.9768 C-40.813 70.727 -40.3034 72.1982 -38.5642 74.3376 C-33.5719 74.4469 -30.4201 73.0901 -26.7751 69.8425 C-23.3508 66.4809 -20.7154 62.5008 -18.0642 58.5251 C-17.8386 58.1872 -17.6129 57.8493 -17.3805 57.5012 C-16.7363 56.5281 -16.1013 55.5499 -15.4705 54.5681 C-15.2771 54.2725 -15.0838 53.9769 -14.8846 53.6723 C-13.8535 52.0327 -13.5642 51.34 -13.5642 49.3376 C-14.1701 49.1907 -14.7759 49.0437 -15.4001 48.8923 C-22.2024 47.1145 -27.7207 44.2101 -33.5642 40.3376 Z " fill="#a2c037" transform="translate(1174.564208984375,202.662353515625)"/>
<path d="M0 0 C2.0925 0.9064 3.0355 1.9412 4 4 C6.2046 12.3775 1.1514 21.4135 -2 29 C-1.8048 28.7494 -1.6096 28.4989 -1.4084 28.2407 C18.2851 3.0599 18.2851 3.0599 27.7344 1.7617 C32.1069 1.5214 34.9894 2.07 38.6758 4.6367 C42.2931 8.3607 43.5564 11.853 43.5 17 C43.4979 17.5889 43.4958 18.1777 43.4937 18.7844 C43.225 26.858 40.919 34.64 38.9096 42.4202 C36.9686 49.9569 35.5977 57.199 36 65 C42.5882 62.0557 47.3283 58.0589 52.1047 52.7468 C54.5272 50.1375 56.2862 48.4617 59.8711 47.9182 C61.6962 48.0504 62.8753 48.845 64.2031 50.0586 C65.247 51.2918 65.9171 52.1697 66.1484 53.7891 C65.1752 61.7284 55.6368 70.0308 49.8193 74.7336 C44.0442 79.1294 38.2554 80.916 31 80 C26.1572 78.6504 22.5357 75.2779 20 71 C12.9193 57.3208 20.6097 37.754 24 24 C20.9702 26.2949 18.2973 28.5334 16.0195 31.582 C15.7654 31.9126 15.5112 32.2431 15.2493 32.5836 C14.4298 33.6546 13.6205 34.7328 12.8125 35.8125 C12.5293 36.1875 12.2461 36.5625 11.9544 36.9488 C5.0738 46.0647 -1.3022 55.428 -7.1445 65.2422 C-7.4132 65.6931 -7.6818 66.144 -7.9586 66.6085 C-9.2809 68.8325 -10.5934 71.0615 -11.8909 73.3 C-17.6002 83.0812 -17.6002 83.0812 -20.9775 84.3743 C-23.9786 84.9583 -26.9495 84.5467 -29.6289 83.1523 C-31.6613 81.4442 -32.8655 79.9171 -33.2568 77.2493 C-33.1978 72.2125 -32.5063 67.5597 -31.25 62.6875 C-31.149 62.2857 -31.0479 61.8839 -30.9438 61.4699 C-28.6001 52.2584 -25.5278 43.2659 -22.4562 34.2774 C-22.0688 33.1435 -21.683 32.0091 -21.2972 30.8746 C-18.7851 23.5046 -16.1876 16.1682 -13.1927 8.9784 C-12.8198 8.0816 -12.4541 7.1817 -12.0886 6.2818 C-9.5861 0.4379 -6.4576 -1.1301 0 0 Z M-4 30 C-3 32 -3 32 -3 32 Z " fill="#a2c037" transform="translate(937,199)"/>
<path d="M0 0 C4.7564 3.3182 8.154 8.2757 9.4834 13.9292 C12.6012 31.8267 5.9452 49.0256 -3.8555 63.6562 C-5.233 65.6115 -6.7343 67.4389 -8.2852 69.2578 C-8.5892 69.626 -8.8933 69.9942 -9.2065 70.3735 C-15.9219 78.4861 -22.4818 84.6847 -33.2852 86.2578 C-39.3384 86.689 -44.5228 84.9384 -49.2852 81.2578 C-53.9123 77.0919 -56.2928 70.9269 -56.6416 64.7913 C-56.8428 51.5487 -51.554 35.7187 -42.429 25.8589 C-41.8386 25.2555 -41.2447 24.6554 -40.6472 24.0591 C-38.2665 21.5751 -37.349 19.0796 -36.3477 15.8203 C-34.1059 8.7179 -29.6796 2.8581 -23.0708 -0.7834 C-15.8158 -4.2271 -6.8913 -4.2791 0 0 Z M-18.5352 15.2891 C-21.2529 18.2466 -22.1871 21.3927 -22.3828 25.3281 C-22.2331 28.2874 -21.4329 30.2096 -19.2852 32.2578 C-15.8986 34.5434 -12.2405 34.5025 -8.2852 34.2578 C-6.8452 30.9724 -5.7088 27.83 -5.2852 24.2578 C-5.2465 23.9413 -5.2465 23.9413 -5.0508 22.3398 C-4.8112 19.4549 -4.6958 17.1429 -6.3672 14.6328 C-7.6148 13.3672 -8.8173 12.2588 -10.2852 11.2578 C-13.2095 11.2578 -16.361 13.4954 -18.5352 15.2891 Z M-32.2852 39.2578 C-36.3154 47.4357 -39.3603 54.938 -39.5352 64.1328 C-39.5446 64.5023 -39.554 64.8718 -39.5637 65.2524 C-39.5312 67.9129 -38.8834 69.241 -37.2852 71.2578 C-32.5649 71.2232 -29.4672 69.4304 -26.1523 66.2656 C-20.7982 60.7393 -16.5381 54.1999 -13.2852 47.2578 C-13.842 47.1714 -14.3989 47.0851 -14.9727 46.9961 C-21.0317 45.9259 -25.2584 43.7175 -30.2852 40.2578 C-30.9472 39.9153 -31.6129 39.5796 -32.2852 39.2578 Z " fill="#a2c037" transform="translate(1408.28515625,205.7421875)"/>
<path d="M0 0 C1.9189 1.4214 2.7893 2.9663 3.2659 5.3044 C3.6168 11.893 0.8338 17.8147 -1.4375 23.875 C-1.8926 25.1148 -2.3465 26.3551 -2.7993 27.5957 C-3.7304 30.1438 -4.6678 32.6894 -5.6099 35.2334 C-7.5414 40.453 -9.4256 45.6895 -11.3084 50.9268 C-11.8549 52.4441 -12.4044 53.9602 -12.9548 55.4761 C-14.7594 60.4557 -16.5212 65.449 -18.2227 70.4648 C-18.3928 70.9588 -18.563 71.4527 -18.7384 71.9617 C-19.6498 74.6783 -20.2728 77.2108 -20.5625 80.0625 C-20.7795 81.9966 -20.9566 83.3954 -22.1875 84.9375 C-24.0599 86.3898 -26.1298 86.5559 -28.4375 86.3828 C-30.9405 85.7696 -32.3946 84.9365 -34.0781 82.9688 C-37.9637 76.0677 -34.904 65.6147 -32.9609 58.4375 C-32.8543 58.0372 -32.7478 57.6368 -32.6379 57.2243 C-29.9834 47.3158 -26.5803 37.6717 -23.0615 28.0425 C-22.162 25.5794 -21.2837 23.1092 -20.41 20.6369 C-19.7214 18.6978 -19.0199 16.7636 -18.3146 14.8306 C-17.9849 13.9208 -17.6595 13.0095 -17.339 12.0965 C-15.4895 6.8485 -13.7765 2.2767 -9 -1 C-5.5562 -2.404 -3.2542 -1.636 0 0 Z " fill="#a2c037" transform="translate(726,205)"/>
<path d="M0 0 C0.6862 -0.0027 1.3724 -0.0068 2.0585 -0.012 C3.9324 -0.0226 5.8057 -0.0145 7.6795 -0.0033 C9.7047 0.0056 11.7299 -0.0029 13.7552 -0.0092 C17.7177 -0.0186 21.68 -0.0121 25.6425 0.0001 C30.2589 0.0138 34.8754 0.0121 39.4918 0.01 C47.7293 0.0068 55.9666 0.0184 64.204 0.038 C72.1939 0.057 80.1837 0.0641 88.1737 0.0585 C96.8795 0.0525 105.5853 0.0527 114.2912 0.064 C115.2197 0.0652 116.1481 0.0664 117.0766 0.0677 C117.305 0.068 117.305 0.068 118.4609 0.0695 C121.6776 0.0734 124.8943 0.073 128.111 0.0711 C132.0312 0.0689 135.9513 0.0742 139.8714 0.0887 C141.8709 0.0959 143.8703 0.1 145.8698 0.0954 C147.7012 0.0914 149.5324 0.0965 151.3637 0.1091 C152.3378 0.1134 153.3119 0.1079 154.2859 0.1021 C157.8008 0.1372 160.1382 0.4726 163.1236 2.3742 C164.5884 3.892 165.1236 5.5411 165.1236 7.6398 C164.7384 10.3042 163.939 11.996 161.94 13.7961 C160.0343 15.1456 158.627 15.5004 156.2834 15.5112 C155.7008 15.5163 155.1182 15.5214 154.5179 15.5266 C154.1976 15.5269 154.1976 15.5269 152.5768 15.5281 C151.8898 15.5321 151.2028 15.5366 150.5158 15.5414 C148.6259 15.5534 146.736 15.559 144.8461 15.5636 C142.8085 15.5695 140.771 15.5812 138.7334 15.5919 C133.8117 15.6164 128.89 15.631 123.9682 15.6439 C122.578 15.6476 121.1878 15.6516 119.7976 15.6557 C111.1638 15.6809 102.53 15.703 93.8962 15.7154 C91.8965 15.7183 89.8969 15.7213 87.8973 15.7243 C87.6488 15.7247 87.6488 15.7247 86.3913 15.7266 C78.3406 15.7392 70.2902 15.7725 62.2396 15.8141 C53.9735 15.8566 45.7075 15.8801 37.4412 15.8853 C32.8003 15.8887 28.1597 15.9005 23.5189 15.9334 C19.5664 15.9615 15.6143 15.9724 11.6618 15.9612 C9.6457 15.9561 7.6304 15.9589 5.6144 15.9837 C3.7664 16.0062 1.9199 16.0054 0.0719 15.9865 C-0.9086 15.9824 -1.8891 16.0028 -2.8694 16.0243 C-6.3825 15.9614 -8.2134 15.4302 -10.7815 12.9559 C-12.2388 11.3516 -12.8247 10.5964 -13.3217 8.4602 C-13.216 7.8955 -13.1103 7.3309 -13.0014 6.7492 C-12.9214 6.1795 -12.8415 5.6097 -12.7592 5.0227 C-10.1578 0.1653 -4.9463 -0.058 0 0 Z " fill="#a2c037" transform="translate(123.87635803222656,221.6257781982422)"/>
<path d="M0 0 C1.5557 1.3335 2.4034 2.5906 2.7639 4.6262 C2.8272 8.8678 1.7262 12.0753 -0.0938 15.875 C-0.3666 16.4471 -0.6395 17.0192 -0.9207 17.6086 C-3.0505 21.8641 -4.9881 25.2572 -9.4688 27.3125 C-11.7232 28.0432 -14.0113 28.5076 -16.3438 28.9102 C-18.8934 29.3543 -21.1133 30.2488 -23.4688 31.3125 C-24.7887 29.9925 -26.1088 28.6725 -27.4688 27.3125 C-27.3076 26.9561 -27.3076 26.9561 -26.4922 25.1523 C-25.3726 22.3574 -25.1963 19.8544 -25.0938 16.875 C-24.7271 11.2272 -23.3729 8.1598 -19.2695 4.1367 C-14.2121 -0.2506 -6.4849 -3.0355 0 0 Z " fill="#a2c037" transform="translate(1453.46875,257.6875)"/>
<path d="M0 0 C1.981 0.0026 3.962 0.0002 5.9431 -0.0014 C9.2641 -0.0032 12.5851 -0.0009 15.9062 0.004 C19.6962 0.0094 23.4861 0.0076 27.2761 0.0021 C30.5836 -0.0025 33.8912 -0.003 37.1987 -0.0004 C39.1507 0.0011 41.1027 0.0014 43.0547 -0.002 C47.6703 -0.0086 52.283 0.0268 56.8977 0.1159 C57.9967 0.1349 59.0956 0.147 60.1947 0.1582 C62.0418 0.1799 63.8864 0.229 65.7324 0.2969 C66.4237 0.3187 67.1154 0.3324 67.8071 0.3372 C73.0279 0.3831 73.0279 0.3831 75.2967 2.208 C77.9068 5.2736 77.9068 5.2736 78.0513 7.5326 C77.7319 10.112 76.6876 11.8368 74.7783 13.5562 C72.5226 15.1535 70.6062 15.2809 67.8827 15.2748 C67.468 15.2777 67.0533 15.2807 66.626 15.2838 C65.2343 15.2925 63.8426 15.294 62.4509 15.2955 C61.4538 15.3001 60.4567 15.3051 59.4596 15.3105 C56.7487 15.3236 54.0379 15.3301 51.327 15.3345 C49.6327 15.3374 47.9385 15.3416 46.2442 15.346 C40.9417 15.3597 35.6392 15.3694 30.3367 15.3732 C24.2189 15.3777 18.1013 15.3952 11.9836 15.4242 C7.2532 15.4459 2.5228 15.4559 -2.2077 15.4573 C-5.0321 15.4583 -7.8563 15.4642 -10.6806 15.4821 C-13.3393 15.4986 -15.9976 15.5007 -18.6563 15.4919 C-19.6298 15.4912 -20.6033 15.4955 -21.5767 15.5054 C-31.4192 15.5996 -31.4192 15.5996 -35.0382 12.1343 C-36.2419 9.866 -36.3663 7.3767 -35.71 4.8921 C-34.8125 2.9089 -34.0745 1.9688 -32.0382 1.1343 C-30.6151 0.9311 -30.6151 0.9311 -28.9471 0.8226 C-28.6338 0.8019 -28.6338 0.8019 -27.0486 0.6975 C-26.3616 0.6578 -25.6745 0.6187 -24.9874 0.5801 C-24.811 0.5696 -24.811 0.5696 -23.9185 0.5166 C-15.9465 0.0481 -7.9835 -0.0139 0 0 Z " fill="#a2c037" transform="translate(211.03815078735352,259.865674495697)"/>
</svg>
