<?xml version="1.0" encoding="UTF-8"?>
<svg xmlns="http://www.w3.org/2000/svg" viewBox="0 0 512 512" width="512" height="512">
  <rect width="512" height="512" fill="#a2c037"/>
  <svg viewBox="45 90 435 325" x="52" y="96" width="408" height="320">
<rect x="45" y="90" width="435" height="325" fill="#a2c037"/>
  
  
<path d="M0 0 C0.339 0.0889 0.678 0.1779 1.0273 0.2695 C1.3689 0.3456 1.7105 0.4216 2.0625 0.5 C2.9648 1.082 2.9648 1.082 3.6133 2.4023 C4.0228 4.3589 3.8612 5.8036 3.5273 7.7695 C3.4255 8.3921 3.3237 9.0148 3.2188 9.6562 C3.135 10.1268 3.0512 10.5973 2.9648 11.082 C3.0989 11.0459 3.0989 11.0459 3.7773 10.8633 C7.5975 9.9585 13.559 8.7118 17.1445 10.7539 C17.9648 11.582 17.9648 11.582 18.9648 13.082 C18.6348 14.072 18.3048 15.062 17.9648 16.082 C17.6025 16.1374 17.2401 16.1927 16.8667 16.2498 C15.191 16.5059 13.5154 16.7627 11.8398 17.0195 C11.2701 17.1065 10.7003 17.1936 10.1133 17.2832 C6.3921 17.8541 2.6767 18.4532 -1.0352 19.082 C-1.1354 19.5185 -1.2356 19.9549 -1.3389 20.4045 C-1.8183 22.4852 -2.3007 24.5651 -2.7852 26.6445 C-2.8744 27.0278 -2.9637 27.4112 -3.0556 27.8061 C-4.301 33.1379 -5.645 38.4276 -7.0977 43.707 C-8.4917 48.8238 -9.7208 53.9509 -10.7852 59.1445 C-10.849 59.4482 -10.849 59.4482 -11.1721 60.9849 C-11.9124 64.7294 -12.192 68.2675 -12.0352 72.082 C-12.8602 72.247 -12.8602 72.247 -17.0352 73.082 C-20.0191 69.2573 -19.3365 64.8919 -18.8428 60.2881 C-18.5788 58.4992 -18.2584 56.7314 -17.9102 54.957 C-17.8485 54.6326 -17.7868 54.3083 -17.7232 53.974 C-15.6048 42.9178 -12.699 31.7294 -9.0352 21.082 C-9.1887 21.1301 -9.1887 21.1301 -9.9656 21.3733 C-11.3812 21.809 -12.8016 22.2268 -14.2227 22.6445 C-14.7054 22.796 -15.1882 22.9475 -15.6855 23.1035 C-19.0123 24.0636 -21.7354 24.3087 -25.0352 23.082 C-26.0352 22.082 -26.0352 22.082 -26.1328 20.6719 C-26.1212 20.1266 -26.1096 19.5813 -26.0977 19.0195 C-26.0886 18.4717 -26.0796 17.9238 -26.0703 17.3594 C-26.0587 16.9379 -26.0471 16.5163 -26.0352 16.082 C-21.8703 13.9376 -21.8703 13.9376 -19.9062 14.2773 C-19.5363 14.3985 -19.1663 14.5197 -18.7852 14.6445 C-15.1202 15.552 -11.3089 14.6002 -8.0186 12.8574 C-5.4461 10.8291 -4.6844 7.3789 -3.7891 4.3594 C-3.1536 2.2423 -2.4935 0.1976 0 0 Z " fill="#ffffff" transform="translate(359.03515625,106.91796875)"/>
<path d="M0 0 C0.9727 0.1211 0.9727 0.1211 2.0625 0.4375 C2.2436 0.4884 2.2436 0.4884 3.1602 0.7461 C3.4373 0.8299 3.7145 0.9137 4 1 C5.3326 6.1868 5.3326 6.1868 4 9 C4.3171 8.9278 4.6342 8.8556 4.9609 8.7812 C9.9689 7.7852 14.9144 7.9095 20 8 C20.165 8.825 20.165 8.825 21 13 C18.7354 13.8366 16.6016 14.2478 14.207 14.5352 C13.8561 14.5781 13.5052 14.6211 13.1437 14.6654 C12.0336 14.8007 10.9231 14.9317 9.8125 15.0625 C9.0553 15.154 8.2981 15.2458 7.541 15.3379 C5.6944 15.5619 3.8473 15.782 2 16 C1.8998 16.426 1.7996 16.8519 1.6963 17.2908 C1.6252 17.5928 1.6252 17.5928 1.2656 19.1211 C1.1877 19.4524 1.1097 19.7836 1.0294 20.1249 C0.5889 21.9973 0.1483 23.8696 -0.2925 25.7419 C-1.1361 29.3258 -1.9793 32.9098 -2.8192 36.4946 C-3.1701 37.9919 -3.5214 39.4891 -3.8727 40.9864 C-4.0378 41.6908 -4.2028 42.3953 -4.3676 43.0998 C-4.6013 44.0992 -4.8357 45.0985 -5.0703 46.0977 C-5.2203 46.7365 -5.3703 47.3754 -5.5249 48.0337 C-5.853 49.4102 -6.1995 50.7808 -6.5571 52.1499 C-6.6493 52.5059 -6.7414 52.8619 -6.8364 53.2286 C-7.0933 54.2156 -7.3546 55.2015 -7.6162 56.1873 C-8.171 58.8078 -8.1816 61.3372 -8 64 C-8.66 64.33 -8.66 64.33 -12 66 C-13.4833 65.0112 -14.1465 64.5322 -15 63 C-15.2706 60.3097 -15.1728 57.6944 -15 55 C-15.3635 55.5053 -15.727 56.0106 -16.1016 56.5312 C-19.9749 61.6411 -19.9749 61.6411 -22.6289 62.5703 C-25.0403 62.6549 -26.954 62.3559 -28.8125 60.75 C-30.288 59.1403 -30.5332 57.0726 -31 55 C-31.1806 55.2726 -31.3613 55.5453 -31.5474 55.8262 C-36.7169 63.4678 -36.7169 63.4678 -39.6953 64.7031 C-42.1542 64.7773 -43.7301 64.3702 -45.6445 62.8203 C-47.6953 60.5981 -47.49 58.0051 -47.4375 55.125 C-47.4321 54.5593 -47.4267 53.9935 -47.4211 53.4106 C-47.2689 49.0476 -46.4563 45.0442 -45.1875 40.875 C-45.0224 40.3312 -44.8573 39.7874 -44.6873 39.2271 C-43.6335 36.087 -42.5564 34.1242 -40 32 C-38.68 32.66 -37.36 33.32 -36 34 C-36.4495 38.681 -37.4683 42.919 -38.9836 47.3589 C-39.9449 50.3049 -40.1694 52.9084 -40 56 C-35.1763 49.008 -30.3986 41.9193 -27.3867 33.9336 C-26.8044 32.5279 -26.3442 31.7468 -25 31 C-23.5605 31.155 -22.3895 31.5368 -21 32 C-19.6841 35.6602 -20.3469 38.0943 -21.4375 41.75 C-22.7953 46.6515 -23.4031 50.9235 -23 56 C-22.0822 54.9384 -21.1658 53.8758 -20.25 52.8125 C-19.9973 52.5205 -19.7447 52.2286 -19.4844 51.9277 C-18.943 51.2984 -18.4086 50.6631 -17.8799 50.0232 C-17 49 -17 49 -16.0186 48.0569 C-11.916 43.7685 -11.0988 37.8987 -9.75 32.3125 C-9.4803 31.2439 -9.2095 30.1755 -8.9375 29.1074 C-8.4477 27.1595 -7.9586 25.2115 -7.4873 23.259 C-7.3928 22.87 -7.2983 22.4809 -7.2009 22.08 C-7 21 -7 21 -7 19 C-7.307 19.0961 -7.6141 19.1922 -7.9304 19.2913 C-9.3461 19.727 -10.7664 20.1448 -12.1875 20.5625 C-12.6703 20.714 -13.153 20.8654 -13.6504 21.0215 C-17.0724 22.009 -19.5855 22.0338 -23 21 C-22.9772 19.119 -22.8476 17.7107 -22 16 C-19.1083 13.911 -15.6552 13.0948 -12.1953 12.4688 C-4.7973 11.0334 -4.7973 11.0334 -3.2314 9.0039 C-1.9816 6.4482 -1.52 3.7769 -1 1 C-0.67 0.67 -0.34 0.34 0 0 Z " fill="#ffffff" transform="translate(295,118)"/>
<path d="M0 0 C0.825 0.165 0.825 0.165 5 1 C4.3566 8.4003 2.6585 15.5944 1.0452 22.8302 C0.8104 23.8844 0.5766 24.9389 0.3431 25.9935 C-0.4548 29.5968 -1.2565 33.1993 -2.0625 36.8008 C-2.8023 40.1067 -3.5319 43.4147 -4.2581 46.7236 C-4.7731 49.0615 -5.2956 51.3977 -5.8205 53.7335 C-6.0608 54.8085 -6.2985 55.8841 -6.5333 56.9604 C-7.6973 62.2831 -9.0147 67.4524 -10.9883 72.5391 C-11.143 72.9463 -11.2977 73.3535 -11.4571 73.773 C-12.5502 76.438 -13.8003 78.1267 -16 80 C-17.4648 80.4336 -17.4648 80.4336 -18.9375 80.4375 C-19.4209 80.4568 -19.9043 80.4762 -20.4023 80.4961 C-22.978 79.6963 -24.4647 78.1886 -26 76 C-26.972 73.7539 -27.5325 71.4438 -28.0625 69.0625 C-28.143 68.7215 -28.2236 68.3805 -28.3066 68.0292 C-31.9418 52.639 -33.3811 36.7039 -35 21 C-41.3567 38.3463 -46.9324 55.4515 -49.7954 73.7505 C-49.8707 74.2276 -49.946 74.7048 -50.0235 75.1964 C-50.1634 76.0938 -50.2991 76.9919 -50.43 77.8906 C-50.8905 80.8905 -50.8905 80.8905 -52 82 C-53.1563 82.1328 -53.1563 82.1328 -54.5 82.125 C-54.7217 82.1263 -54.7217 82.1263 -55.8438 82.1328 C-57 82 -57 82 -58 81 C-58.7233 73.9179 -57.4062 66.9149 -56 60 C-55.8764 59.3866 -55.7528 58.7731 -55.6255 58.1411 C-46.8711 15.7697 -46.8711 15.7697 -36 7 C-33.9248 6.4001 -32.0918 6.4728 -30 7 C-27.302 9.1088 -26.2482 12.367 -25.7481 15.6578 C-25.7182 15.959 -25.7182 15.959 -25.5669 17.4832 C-25.5326 17.8188 -25.4982 18.1544 -25.4628 18.5002 C-25.3888 19.2268 -25.3163 19.9535 -25.2452 20.6804 C-25.1304 21.849 -25.0107 23.017 -24.8896 24.185 C-24.5462 27.5059 -24.21 30.8274 -23.8804 34.1497 C-22.7774 45.2295 -21.2676 56.0942 -19 67 C-16.8143 62.2945 -15.2924 57.7676 -14.168 52.6875 C-14.0098 51.9972 -13.851 51.307 -13.6916 50.617 C-13.3566 49.1624 -13.0252 47.7071 -12.6968 46.251 C-11.9236 42.8258 -11.1277 39.4059 -10.3327 35.9857 C-10.1551 35.2216 -9.9778 34.4575 -9.8006 33.6933 C-8.2764 27.12 -6.6936 20.5643 -5.0043 14.031 C-4.7534 13.0596 -4.5046 12.0876 -4.2581 11.115 C-3.9203 9.7846 -3.5748 8.4566 -3.2266 7.1289 C-3.1788 6.9391 -3.1788 6.9391 -2.9371 5.9784 C-2.3092 3.6397 -1.4469 1.9461 0 0 Z " fill="#ffffff" transform="translate(249,112)"/>
<path d="M0 0 C0.33 1.98 0.66 3.96 1 6 C-0.25 7.0625 -0.25 7.0625 -2 8 C-3.4651 7.8792 -4.5932 7.4851 -6 7 C-6.3066 2.5366 -6.3066 2.5366 -5.25 0.6875 C-3.4269 -0.3152 -2.0641 -0.1376 0 0 Z " fill="#ffffff" transform="translate(370,129)"/>
<path d="M0 0 C1.237 0.3255 2.474 0.651 3.7109 0.9766 C3.7109 2.9566 3.7109 4.9366 3.7109 6.9766 C4.0745 6.4712 4.438 5.9659 4.8125 5.4453 C8.7747 0.2275 8.7747 0.2275 11.4453 -0.4883 C12.9255 -0.4636 14.2677 -0.3459 15.7109 -0.0234 C17.2044 2.5084 16.9017 5.177 16.8984 8.0391 C16.8988 8.3283 16.8988 8.3283 16.9004 9.7917 C16.8402 14.7288 16.0796 19.2473 14.7109 23.9766 C15.0255 23.6272 15.34 23.2779 15.6641 22.918 C18.2288 20.191 19.9278 18.3969 23.7109 17.9766 C23.1488 22.5316 21.5815 26.0169 18.3984 29.3516 C15.8074 30.3112 13.2573 30.0334 10.7109 28.9766 C8.8891 26.7523 8.4669 25.2522 8.5156 22.4023 C8.5185 22.0736 8.5213 21.745 8.5242 21.4063 C8.5353 20.3668 8.5604 19.3283 8.5859 18.2891 C8.596 17.5801 8.6051 16.8711 8.6133 16.1621 C8.6352 14.4333 8.6697 12.705 8.7109 10.9766 C7.6244 12.8593 6.5401 14.7433 5.4578 16.6284 C5.0909 17.2668 4.7234 17.9048 4.3552 18.5425 C2.236 22.2142 0.2064 25.8804 -1.5847 29.728 C-2.3394 31.0659 -3.1216 31.9823 -4.2891 32.9766 C-5.3242 32.9883 -5.3242 32.9883 -6.3516 32.6641 C-6.6932 32.5648 -7.0348 32.4655 -7.3867 32.3633 C-8.2891 31.9766 -8.2891 31.9766 -9.2891 30.9766 C-9.2612 29.6388 -9.1666 28.3898 -9.0039 27.0664 C-8.9569 26.6682 -8.9098 26.2699 -8.8613 25.8596 C-8.292 21.4526 -7.2837 17.1642 -6.1873 12.8625 C-5.8462 11.518 -5.5194 10.1705 -5.1934 8.8223 C-4.9774 7.9581 -4.7606 7.0942 -4.543 6.2305 C-4.4471 5.8315 -4.3512 5.4326 -4.2523 5.0216 C-2.93 -0.0533 -2.93 -0.0533 0 0 Z M1.7109 7.9766 C2.7109 9.9766 2.7109 9.9766 2.7109 9.9766 Z " fill="#ffffff" transform="translate(405.2890625,134.0234375)"/>
<path d="M0 0 C0.336 -0.0225 0.6721 -0.045 1.0183 -0.0681 C3.2655 -0.0469 4.5779 0.6237 6.2773 2.0898 C8.5947 4.6589 8.7542 7.0783 8.6875 10.4375 C8.6844 10.7198 8.6844 10.7198 8.6687 12.1482 C8.3427 18.746 5.6613 25.9667 0.8276 30.6284 C-1.4896 32.5415 -3.6306 34.1867 -6.6758 34.6094 C-9.3238 34.2487 -11.1822 32.3344 -12.9375 30.4375 C-13.6481 29.4586 -14.2926 28.4623 -14.9375 27.4375 C-15.2894 27.9312 -15.6413 28.4249 -16.0039 28.9336 C-20.1357 34.4035 -20.1357 34.4035 -22.8945 35.125 C-24.5974 35.347 -26.2216 35.473 -27.9375 35.4375 C-30.0365 33.2911 -31.0334 31.0768 -31.0547 28.0781 C-30.7474 21.382 -29.4303 11.5316 -24.9534 6.2839 C-23.9375 5.4375 -23.9375 5.4375 -22.6484 5.4609 C-22.428 5.5189 -22.428 5.5189 -21.3125 5.8125 C-20.8665 5.9234 -20.4205 6.0342 -19.9609 6.1484 C-19.6232 6.2438 -19.2855 6.3392 -18.9375 6.4375 C-19.42 11.3122 -20.5162 15.8462 -21.9211 20.5286 C-22.7193 23.2711 -23.0914 25.5803 -22.9375 28.4375 C-21.7268 26.84 -20.5184 25.2408 -19.312 23.6401 C-18.7053 22.836 -18.0968 22.0332 -17.4883 21.2305 C-10.1114 11.4349 -10.1114 11.4349 -8.375 6.75 C-6.4011 2.0541 -6.4011 2.0541 -5.0156 0.875 C-3.3757 0.2095 -1.7483 0.0764 0 0 Z M-1.625 6.625 C-2.4062 7.4375 -2.4062 7.4375 -2.9375 8.4375 C-2.8955 10.2005 -2.4854 11.7675 -1.9375 13.4375 C-0.6175 13.4375 0.7025 13.4375 2.0625 13.4375 C2.2581 12.4808 2.4437 11.522 2.625 10.5625 C2.7294 10.0288 2.8338 9.4952 2.9414 8.9453 C3.068 7.3691 2.9146 6.7377 2.0625 5.4375 C-0.28 5.4375 -0.28 5.4375 -1.625 6.625 Z M-5.9375 17.4375 C-8.0274 20.8336 -8.1741 23.4945 -7.9375 27.4375 C-6.6055 27.6562 -6.6055 27.6562 -4.9375 27.4375 C-3.8244 26.4177 -3.0595 25.2043 -2.25 23.9375 C-2.0251 23.6036 -1.8001 23.2698 -1.5684 22.9258 C-1.0156 22.1024 -0.4753 21.2707 0.0625 20.4375 C-1.2449 18.9888 -2.1378 18.1974 -4.0625 17.8125 C-4.6812 17.6887 -5.3 17.565 -5.9375 17.4375 Z " fill="#ffffff" transform="translate(386.9375,135.5625)"/>
<path d="M0 0 C1.458 1.3886 1.9397 2.3032 2.1133 4.3086 C2.1238 5.547 2.0879 6.765 2 8 C1.34 8.33 1.34 8.33 -2 10 C-2.33 8.68 -2.66 7.36 -3 6 C-7.1673 7.9889 -9.0855 10.0909 -11 14.25 C-11.2493 14.7622 -11.4985 15.2743 -11.7554 15.802 C-13.1768 18.836 -14.3441 21.9 -15.3516 25.0898 C-15.4601 25.4312 -15.5686 25.7726 -15.6804 26.1244 C-16.2087 27.8047 -16.71 29.4878 -17.1758 31.1865 C-18.493 35.6263 -18.493 35.6263 -19.9678 36.7134 C-21.0234 37.0508 -21.0234 37.0508 -23 37 C-24.4766 35.9368 -24.9405 35.3041 -25.292 33.5073 C-25.3082 27.4265 -24.0795 21.7199 -22.6562 15.8252 C-22.2467 14.1112 -21.8652 12.3924 -21.4844 10.6719 C-21.2256 9.5751 -20.9653 8.4788 -20.7031 7.3828 C-20.5925 6.8714 -20.4819 6.36 -20.368 5.833 C-19.498 2.3876 -19.498 2.3876 -18.0023 1.2236 C-17.0116 0.7232 -16.0606 0.323 -15 0 C-12.6562 2.1484 -12.6562 2.1484 -12 3 C-12 3.66 -12 4.32 -12 5 C-11.6623 4.6507 -11.3245 4.3013 -10.9766 3.9414 C-10.5305 3.4864 -10.0845 3.0313 -9.625 2.5625 C-9.1841 2.11 -8.7433 1.6576 -8.2891 1.1914 C-5.5299 -1.3588 -3.4707 -1.2914 0 0 Z " fill="#ffffff" transform="translate(324,141)"/>
<path d="M0 0 C1.32 0.66 2.64 1.32 4 2 C3.3706 7.6635 2.0493 13.0133 0.5625 18.5 C0.3427 19.3241 0.1233 20.1483 -0.0957 20.9727 C-1.3465 25.6632 -2.6472 30.3379 -4 35 C-4.6394 34.8556 -5.2788 34.7113 -5.9375 34.5625 C-6.2971 34.4813 -6.6568 34.4001 -7.0273 34.3164 C-8 34 -8 34 -9 33 C-9.9553 24.4908 -7.4127 16.0789 -5.0625 8 C-4.9049 7.4358 -4.7473 6.8716 -4.585 6.2903 C-3.2453 1.884 -3.2453 1.884 -1.3711 0.625 C-0.9186 0.4187 -0.4662 0.2125 0 0 Z " fill="#ffffff" transform="translate(333,140)"/>
<path d="M0 0 C0.825 0.495 0.825 0.495 5 3 C3.6173 10.0982 1.5195 16.849 -0.8125 23.6875 C-1.1722 24.7494 -1.5319 25.8113 -1.8914 26.8733 C-2.599 28.9602 -3.3101 31.0459 -4.0234 33.1309 C-4.7559 35.2754 -5.474 37.4241 -6.1809 39.5772 C-6.7157 41.2004 -7.265 42.8186 -7.8125 44.4375 C-7.9036 44.7206 -7.9036 44.7206 -8.3645 46.1531 C-9.6168 49.7693 -9.6168 49.7693 -11.5117 50.9102 C-13.0637 51.0038 -13.7359 50.8752 -15 50 C-15.3952 45.7116 -14.8939 42.1055 -13.707 38.0078 C-13.5735 37.5333 -13.4399 37.0588 -13.3022 36.5699 C-13.0175 35.5607 -12.7306 34.552 -12.4418 33.5439 C-12.0045 32.0158 -11.574 30.4859 -11.1453 28.9553 C-10.4228 26.3826 -9.6883 23.8135 -8.9478 21.2458 C-8.6469 20.1987 -8.3484 19.1508 -8.0522 18.1023 C-4.0928 4.0928 -4.0928 4.0928 0 0 Z " fill="#ffffff" transform="translate(399,177)"/>
<path d="M0 0 C2.1919 2.4788 3.4227 5.1157 3.8164 8.4023 C3.5893 11.5513 2.1458 14.2649 0.6992 17.0273 C-0.9508 16.6973 -2.6008 16.3673 -4.3008 16.0273 C-4.3008 13.0573 -4.3008 10.0873 -4.3008 7.0273 C-8.3008 6.0273 -8.3008 6.0273 -9.47 6.3218 C-9.7815 6.5211 -10.0931 6.7204 -10.4141 6.9258 C-10.5927 7.0392 -10.5927 7.0392 -11.4966 7.6133 C-11.8651 7.8737 -12.2336 8.1341 -12.6133 8.4023 C-13.005 8.6756 -13.3967 8.9489 -13.8003 9.2305 C-20.4817 14.147 -24.4304 20.8693 -28.1133 28.1523 C-28.2584 28.4392 -28.2584 28.4392 -28.9927 29.8906 C-31.8168 35.7155 -33.5388 41.5698 -34.0508 48.0273 C-34.072 48.2847 -34.072 48.2847 -34.1792 49.5872 C-34.4392 53.7032 -34.0901 57.2404 -32.3008 61.0273 C-31.3008 62.0273 -31.3008 62.0273 -29.8828 62.082 C-24.8356 61.5695 -21.5983 59.8874 -18.3008 56.0273 C-14.6914 51.3946 -11.7411 46.3609 -9.3008 41.0273 C-9.6078 41.1182 -9.9149 41.2091 -10.2312 41.3027 C-11.6483 41.7179 -13.0682 42.1226 -14.4883 42.5273 C-14.971 42.6704 -15.4538 42.8135 -15.9512 42.9609 C-19.1763 43.87 -21.9507 44.1743 -25.3008 44.0273 C-25.4658 43.2023 -25.4658 43.2023 -26.3008 39.0273 C-22.265 36.2023 -18.4692 35.1304 -13.7275 34.147 C-12.5645 33.9052 -11.4055 33.6492 -10.2461 33.3906 C-6.3059 32.5296 -2.3459 31.817 1.6523 31.2852 C2.0291 31.2279 2.4058 31.1706 2.7939 31.1115 C4.4728 30.9121 5.4759 30.8965 6.9521 31.7612 C7.6992 33.0273 7.6992 33.0273 7.6992 37.0273 C5.0592 37.3573 2.4192 37.6873 -0.3008 38.0273 C-0.342 38.8111 -0.3833 39.5948 -0.4258 40.4023 C-2.1383 50.5111 -11.5444 61.3489 -19.5483 67.2646 C-23.778 70.2256 -28.2671 70.6752 -33.3008 70.0273 C-36.5691 69.1718 -38.3007 67.3314 -40.0161 64.4639 C-44.5656 55.9632 -43.8781 46.0532 -41.3008 37.0273 C-36.468 22.566 -27.9922 7.5009 -14.4551 -0.4014 C-10.1583 -2.528 -3.9718 -2.9699 0 0 Z " fill="#ffffff" transform="translate(342.30078125,185.97265625)"/>
<path d="M0 0 C-0.5859 3.0273 -0.5859 3.0273 -1 4 C-2.6986 5.128 -4.2693 5.1639 -6.2734 5.2461 C-6.6009 5.2619 -6.6009 5.2619 -8.2578 5.342 C-8.6036 5.3574 -8.9494 5.3728 -9.3057 5.3887 C-16.6486 5.7238 -23.7807 6.5715 -31 8 C-31.147 8.562 -31.2939 9.1241 -31.4453 9.7031 C-33.0424 15.7156 -34.7942 21.671 -36.6014 27.6229 C-40.1518 39.3315 -43.1911 50.8802 -45 63 C-45.6437 63.1946 -46.2901 63.3805 -46.9375 63.5625 C-47.1173 63.6147 -47.1173 63.6147 -48.0273 63.8789 C-48.1878 63.8989 -48.1878 63.8989 -49 64 C-51.0527 61.9473 -50.3669 58.1551 -50.3916 55.4043 C-50.2025 46.0394 -47.4477 36.9829 -45 28 C-44.9484 27.8096 -44.9484 27.8096 -44.687 26.8461 C-43.2418 21.5288 -41.7595 16.2231 -40 11 C-45.4208 11.6514 -50.6394 12.7772 -55.9375 14.0625 C-56.7245 14.2509 -57.5116 14.4391 -58.2988 14.627 C-60.2 15.0813 -62.1003 15.5395 -64 16 C-64.66 14.68 -65.32 13.36 -66 12 C-64.7717 9.7534 -63.969 8.7166 -61.4115 7.9489 C-61.245 7.9051 -61.245 7.9051 -60.4023 7.6836 C-60.0518 7.5822 -59.7013 7.4808 -59.3401 7.3763 C-58.2087 7.0523 -57.0736 6.7447 -55.9375 6.4375 C-55.1611 6.2185 -54.3849 5.9987 -53.6089 5.7781 C-48.9989 4.481 -44.3787 3.3117 -39.6641 2.457 C-38 2 -38 2 -36.5078 0.9492 C-34.6589 -0.2147 -33.3417 -0.1481 -31.25 0 C-26.8992 0.1639 -22.7386 -0.3725 -18.4375 -1 C-4.019 -3.0506 -4.019 -3.0506 0 0 Z " fill="#ffffff" transform="translate(286,198)"/>
<path d="M0 0 C2.3817 1.1166 3.9987 2.5498 5 5 C6.6729 12.1447 4.7433 19.8319 1 26 C-4.9911 34.4756 -4.9911 34.4756 -9.3672 35.2383 C-12.0777 35.3717 -14.1426 35.3112 -16.3125 33.5625 C-18.7476 30.624 -19.2229 27.0045 -19.1338 23.3003 C-18.5049 17.1886 -15.3021 11.276 -12.4375 5.9375 C-12.2401 5.5675 -12.0427 5.1976 -11.8394 4.8164 C-9.1197 0.0532 -5.3081 -1.0686 0 0 Z M-5 6 C-5.3633 6.9549 -5.7154 7.9141 -6.0625 8.875 C-6.2597 9.4087 -6.457 9.9423 -6.6602 10.4922 C-7 12 -7 12 -6 14 C-4.35 13.67 -2.7 13.34 -1 13 C-1 10.69 -1 8.38 -1 6 C-2.32 6 -3.64 6 -5 6 Z M-11 17 C-11.9828 21.054 -12.108 24.8371 -12 29 C-7.5052 27.5017 -5.3787 23.8897 -3 20 C-3 19.67 -3 19.34 -3 19 C-5.64 18.34 -8.28 17.68 -11 17 Z " fill="#ffffff" transform="translate(367,212)"/>
<path d="M0 0 C2.423 0.9197 4.03 2.4397 5.4922 4.5664 C6.0384 6.344 6.0161 7.969 5.9297 9.8164 C5.9157 10.3331 5.9018 10.8498 5.8875 11.3821 C4.7894 35.6562 -5.2739 59.4096 -16.5078 80.5664 C-16.6702 80.873 -16.8327 81.1796 -17 81.4954 C-24.1179 94.8871 -33.2451 110.3366 -44.6333 120.5786 C-44.7776 120.7416 -44.7776 120.7416 -45.5078 121.5664 C-45.1702 124.8751 -43.8782 126.6008 -41.6328 128.9414 C-38.9428 131.9225 -36.9801 134.7931 -35.5078 138.5664 C-35.3029 139.0756 -35.0979 139.5848 -34.8867 140.1094 C-33.0315 145.4959 -33.1224 150.9393 -33.5078 156.5664 C-33.5329 156.9559 -33.5581 157.3453 -33.584 157.7466 C-34.3136 166.1707 -39.6047 174.2098 -45.8008 179.7461 C-52.7804 185.3384 -62.6432 189.4024 -71.6953 188.5664 C-73.3302 188.3299 -74.9097 187.982 -76.5078 187.5664 C-76.7119 187.5148 -76.7119 187.5148 -77.7446 187.2539 C-86.8512 184.7525 -94.4379 178.2894 -99.5703 170.4414 C-99.6662 170.2975 -99.6662 170.2975 -100.1516 169.5693 C-101.9372 166.5064 -102.1334 163.0339 -102.5078 159.5664 C-102.8158 159.6143 -103.1237 159.6622 -103.441 159.7115 C-106.6861 160.2159 -109.9313 160.7186 -113.1768 161.2205 C-114.3832 161.4072 -115.5896 161.5944 -116.7959 161.782 C-118.5435 162.0537 -120.2912 162.3238 -122.0391 162.5938 C-122.5665 162.6761 -123.0939 162.7584 -123.6373 162.8432 C-125.2597 163.0929 -126.8832 163.3317 -128.5078 163.5664 C-129.1252 163.6583 -129.7425 163.7501 -130.3786 163.8447 C-135.4052 164.5415 -140.3283 164.7141 -145.3984 164.6992 C-146.2326 164.6999 -147.0669 164.7009 -147.9011 164.7021 C-149.639 164.7036 -151.3768 164.7015 -153.1147 164.6968 C-155.3042 164.6911 -157.4935 164.6944 -159.683 164.7002 C-169.0101 164.721 -178.2259 164.5969 -187.5078 163.5664 C-187.551 163.7083 -187.551 163.7083 -187.7693 164.4266 C-190.5869 173.5648 -195.955 180.5212 -204.3711 185.3047 C-212.1531 189.2048 -220.8778 190.221 -229.3047 187.8672 C-238.6738 184.7523 -244.951 178.151 -249.5078 169.5664 C-253.7188 161.0656 -253.6426 151.8573 -250.7932 142.9319 C-249.8593 140.249 -248.7218 137.8239 -247.0586 135.5039 C-246.5078 134.5664 -246.5078 134.5664 -246.5078 132.5664 C-247.1504 131.8203 -247.1504 131.8203 -248.0391 131.1289 C-248.3549 130.8737 -248.6707 130.6184 -248.9961 130.3555 C-249.33 130.0951 -249.6638 129.8347 -250.0078 129.5664 C-250.6685 129.0512 -251.3249 128.5305 -251.9766 128.0039 C-252.2698 127.7757 -252.5631 127.5476 -252.8652 127.3125 C-253.5078 126.5664 -253.5078 126.5664 -253.5078 124.5664 C-253.785 124.4568 -254.0621 124.3473 -254.3477 124.2344 C-255.471 123.7427 -256.4911 123.254 -257.5078 122.5664 C-257.8411 121.5664 -258.1745 120.5664 -258.5078 119.5664 C-259.3315 119.0901 -259.3315 119.0901 -260.3611 118.6641 C-262.5541 117.6305 -263.8445 116.3694 -265.3555 114.5039 C-265.6085 114.2009 -265.8615 113.8979 -266.1223 113.5857 C-266.9484 112.5871 -267.7607 111.5785 -268.5703 110.5664 C-268.8531 110.2156 -269.1358 109.8648 -269.4271 109.5034 C-283.461 91.9975 -293.2198 72.0533 -299.5078 50.5664 C-299.6391 50.1251 -299.7705 49.6837 -299.9058 49.229 C-301.6754 43.101 -303.3037 35.0292 -300.8555 28.9453 C-299.7965 27.6318 -299.0726 27.1875 -297.5078 26.5664 C-292.307 26.4775 -288.4127 28.4639 -284.0703 31.0664 C-268.5583 39.9204 -250.8121 45.3949 -233.5078 49.5664 C-232.8823 49.718 -232.2568 49.8697 -231.6123 50.0259 C-216.7198 53.5643 -201.8145 55.0523 -186.5703 55.8164 C-186.3541 55.8275 -186.3541 55.8275 -185.2602 55.8834 C-161.1097 57.1073 -137.3862 56.0617 -113.6948 50.8275 C-112.5281 50.5709 -111.3601 50.3213 -110.1914 50.0737 C-99.769 47.8557 -89.5935 44.9994 -79.5078 41.5664 C-79.1351 41.4401 -78.7623 41.3138 -78.3783 41.1836 C-67.2886 37.4135 -56.7456 33.052 -46.3989 27.5605 C-44.8624 26.7475 -43.3135 25.9634 -41.7566 25.1902 C-33.9337 21.3005 -26.6529 16.8179 -19.4453 11.8789 C-19.0416 11.6028 -18.6379 11.3266 -18.222 11.0421 C-13.8845 8.0623 -9.7059 5.0391 -5.8113 1.4932 C-3.9417 0.1639 -2.252 0.0064 0 0 Z M-7.6836 14.2617 C-10.8618 16.9061 -14.2498 19.1655 -17.6953 21.4414 C-18.0275 21.6612 -18.3597 21.8809 -18.702 22.1074 C-20.6797 23.414 -22.662 24.7134 -24.6485 26.0066 C-25.4013 26.497 -26.1527 26.9895 -26.9038 27.4824 C-34.0232 32.1156 -41.6854 35.605 -49.3927 39.1297 C-51.5393 40.1132 -53.6694 41.1234 -55.7891 42.1641 C-71.2553 49.6953 -87.8115 54.6055 -104.5078 58.5664 C-104.8397 58.6453 -105.1717 58.7241 -105.5137 58.8054 C-109.8265 59.8242 -114.1534 60.7438 -118.5078 61.5664 C-119.0031 61.6602 -119.4985 61.754 -120.0088 61.8506 C-123.8266 62.5505 -127.6564 63.0886 -131.5078 63.5664 C-131.8639 63.6113 -132.2199 63.6562 -132.5868 63.7025 C-163.1949 67.5264 -195.282 67.0494 -225.5078 60.5664 C-225.8999 60.4837 -226.2921 60.401 -226.6961 60.3157 C-243.7407 56.717 -260.3992 51.8618 -276.3828 44.8789 C-276.7003 44.7405 -277.0178 44.6021 -277.3449 44.4595 C-281.414 42.669 -285.2378 40.6286 -289.0317 38.325 C-290.5078 37.5664 -290.5078 37.5664 -292.5078 37.5664 C-289.6742 57.9094 -280.6213 78.9776 -268.5078 95.5664 C-268.1422 96.0704 -267.7766 96.5745 -267.3999 97.0938 C-260.3858 106.7031 -252.8553 116.2252 -243.6953 123.8789 C-243.3465 124.1875 -242.9978 124.496 -242.6384 124.814 C-241.5875 125.6374 -240.7887 126.1853 -239.5078 126.5664 C-237.676 126.2222 -236.1586 125.4073 -234.5078 124.5664 C-225.8156 121.2263 -216.3323 119.7508 -207.5078 123.5664 C-201.4046 126.6604 -196.4086 130.9531 -192.5078 136.5664 C-192.3808 136.7488 -192.3808 136.7488 -191.738 137.6721 C-189.6266 140.9233 -188.6569 144.1165 -187.8203 147.8789 C-187.7555 148.1538 -187.7555 148.1538 -187.4277 149.5449 C-187.1134 150.8838 -186.8069 152.224 -186.5078 153.5664 C-159.8039 159.0085 -131.0055 155.6515 -104.5078 150.5664 C-104.4128 150.1842 -104.3178 149.802 -104.22 149.4082 C-101.6013 139.0763 -98.7273 130.7747 -90.5078 123.5664 C-90.1301 123.208 -89.7524 122.8497 -89.3633 122.4805 C-84.1893 117.8775 -76.3346 115.3663 -69.4453 115.3789 C-69.2571 115.3786 -69.2571 115.3786 -68.3049 115.377 C-63.2936 115.4664 -58.3956 116.5313 -53.5078 117.5664 C-27.4171 88.1561 -7.2976 52.2389 -3.5078 12.5664 C-5.8071 12.5664 -6.0256 12.8186 -7.6836 14.2617 Z M-91.6094 135.7812 C-95.5567 141.3833 -96.0927 149.8428 -94.9844 156.4023 C-93.2644 164.8203 -89.4393 170.5786 -82.3867 175.4531 C-78.3369 177.9884 -74.5171 178.9569 -69.7578 178.9414 C-69.2363 178.9398 -68.7148 178.9382 -68.1775 178.9365 C-62.9825 178.7744 -58.9158 177.2307 -54.5078 174.5664 C-54.0167 174.2777 -53.5255 173.9889 -53.0195 173.6914 C-47.8383 170.0982 -44.186 163.4413 -42.7969 157.3945 C-41.4729 149.0213 -42.9935 141.8754 -47.5078 134.5664 C-51.3824 129.5013 -57.1682 125.601 -63.5078 124.5664 C-75.6781 123.187 -83.47 126.8049 -91.6094 135.7812 Z M-238.3828 138.8789 C-241.1365 142.5881 -242.9531 145.9165 -243.5078 150.5664 C-243.5502 150.9011 -243.5926 151.2358 -243.6362 151.5806 C-244.3408 157.9742 -242.9996 164.1227 -239.5078 169.5664 C-235.265 174.8477 -229.1747 179.0247 -222.3867 179.8789 C-216.4115 180.3468 -211.621 178.5135 -206.5078 175.5664 C-206.2236 175.4085 -206.2236 175.4085 -204.7852 174.6094 C-199.1082 170.7328 -196.3391 163.1777 -195.0586 156.6172 C-194.6233 150.4177 -197.4374 142.8758 -201.3789 138.1523 C-205.5851 133.6173 -209.4342 130.6806 -215.7773 130.2305 C-225.7325 129.9723 -232.0059 130.9525 -238.3828 138.8789 Z " fill="#ffffff" transform="translate(452.5078125,216.43359375)"/>
<path d="M0 0 C1.9942 0.9793 2.9835 2.0272 4 4 C6.13 10.6529 4.576 16.5094 1.6797 22.6953 C-0.5755 27.0242 -3.5921 31.6723 -8 34 C-10.8517 34.569 -13.7853 34.7687 -16.3086 33.1719 C-19.3719 30.1646 -20.4127 27.4143 -20.5322 23.1672 C-20.3662 18.8179 -18.5669 15.0608 -16.75 11.1875 C-16.5997 10.8616 -16.4495 10.5357 -16.2947 10.1999 C-12.7087 2.5183 -9.039 -2.522 0 0 Z M-5 5 C-7.9355 8.1179 -7.9355 8.1179 -8.082 10.1211 C-7.864 11.244 -7.6212 12.0383 -7 13 C-5.4375 13.75 -5.4375 13.75 -4 14 C-1.7979 12.3264 -1.7979 12.3264 -1 11 C-1.0315 9.2362 -1.4521 7.6701 -2 6 C-2.99 5.67 -3.98 5.34 -5 5 Z M-12 16 C-13.3177 19.9531 -13.0899 23.8843 -13 28 C-10.5633 27.6303 -9.0534 27.3678 -7.5156 25.3711 C-7.0823 24.7342 -6.6605 24.0894 -6.25 23.4375 C-6.1398 23.2728 -6.1398 23.2728 -5.582 22.4395 C-5.0444 21.633 -4.5207 20.8174 -4 20 C-5.5459 18.214 -6.8788 17.5586 -9.125 16.875 C-9.6638 16.7074 -10.2027 16.5398 -10.7578 16.3672 C-11.1677 16.246 -11.5777 16.1248 -12 16 Z " fill="#ffffff" transform="translate(273,221)"/>
<path d="M0 0 C1.1112 3.0256 1.1869 5.2428 -0.0625 8.25 C-1.0647 10.0764 -1.5829 10.837 -3.5391 11.6016 C-5.0445 11.8513 -6.4752 11.9901 -8 12 C-8 12.66 -8 13.32 -8 14 C-8.66 14 -9.32 14 -10 14 C-10.7484 6.3659 -10.7484 6.3659 -9.0625 3.2891 C-6.3236 0.3276 -3.9978 -0.7655 0 0 Z " fill="#ffffff" transform="translate(389,232)"/>
<path d="M0 0 C0.2221 -0.0018 0.2221 -0.0018 1.3463 -0.0106 C2.8092 -0.0194 4.2715 -0.0136 5.7344 -0.0068 C6.7542 -0.0082 7.7741 -0.0101 8.7939 -0.0126 C10.9291 -0.0156 13.0641 -0.0113 15.1992 -0.002 C17.9331 0.0094 20.6666 0.0029 23.4005 -0.0091 C25.5057 -0.0163 27.6109 -0.014 29.7162 -0.0088 C30.7241 -0.0075 31.732 -0.0091 32.7399 -0.0138 C34.1497 -0.0189 35.5589 -0.0111 36.9688 0 C37.3834 -0.004 37.798 -0.0081 38.2252 -0.0123 C40.8602 0.0261 42.4083 0.4848 44.4844 2.2588 C44.8477 3.4775 44.8477 3.4775 44.7969 4.7588 C44.793 5.1816 44.7891 5.6044 44.7852 6.04 C44.3705 7.7203 43.8848 8.2249 42.4844 9.2588 C40.9229 9.5649 39.3782 9.5422 37.791 9.5334 C37.316 9.5386 36.841 9.5437 36.3516 9.5489 C34.7812 9.5628 33.2111 9.5619 31.6406 9.5596 C30.5497 9.5635 29.4587 9.5678 28.3678 9.5726 C26.0812 9.58 23.7949 9.5797 21.5083 9.5745 C18.5758 9.5687 15.6439 9.5856 12.7114 9.6088 C10.4586 9.6235 8.206 9.6244 5.9532 9.6213 C4.8719 9.6218 3.7906 9.6271 2.7093 9.6371 C1.1984 9.6494 -0.3113 9.6427 -1.8223 9.6311 C-2.0462 9.6349 -2.0462 9.6349 -3.1794 9.6543 C-4.367 9.6341 -5.3745 9.589 -6.5156 9.2588 C-7.7321 7.8851 -8.4596 7.0091 -8.5977 5.1611 C-8.5087 4.8427 -8.4198 4.5243 -8.3281 4.1963 C-8.2521 3.8753 -8.176 3.5543 -8.0977 3.2236 C-6.2148 0.1024 -3.259 -0.0318 0 0 Z " fill="#ffffff" transform="translate(88.515625,279.7412109375)"/>
<path d="M0 0 C0.19 -0.0011 0.19 -0.0011 1.1517 -0.0069 C2.4261 -0.0132 3.7003 -0.0124 4.9747 -0.0116 C5.888 -0.0145 6.8013 -0.0179 7.7146 -0.0217 C10.196 -0.0306 12.6773 -0.0329 15.1586 -0.0335 C17.2288 -0.0345 19.299 -0.0382 21.3692 -0.0417 C26.2519 -0.0499 31.1345 -0.0523 36.0172 -0.0516 C41.058 -0.051 46.0987 -0.0615 51.1395 -0.0773 C55.4648 -0.0904 59.7901 -0.0958 64.1154 -0.0951 C66.6999 -0.0949 69.2843 -0.0977 71.8688 -0.1083 C74.2983 -0.118 76.7278 -0.1181 79.1573 -0.1108 C80.0499 -0.1097 80.9424 -0.1121 81.8349 -0.1182 C83.0517 -0.1258 84.2678 -0.1213 85.4846 -0.1135 C85.662 -0.1161 85.662 -0.1161 86.5594 -0.1291 C88.2475 -0.1053 89.1066 0.0291 90.4606 1.073 C91.4051 2.3546 91.5116 3.0536 91.4923 4.6337 C91.4949 4.8451 91.4949 4.8451 91.5079 5.915 C91.1451 7.5795 90.5904 8.0954 89.2423 9.1337 C87.9085 9.3324 86.7799 9.4085 85.4467 9.3944 C85.0625 9.3982 84.6784 9.4021 84.2826 9.406 C82.9943 9.4163 81.7064 9.4123 80.4181 9.4084 C79.4949 9.4127 78.5718 9.4179 77.6487 9.4239 C75.1404 9.4373 72.6323 9.4378 70.1241 9.4353 C68.0315 9.4342 65.9389 9.4391 63.8464 9.4439 C58.9109 9.455 53.9756 9.4554 49.0402 9.4494 C43.9448 9.4433 38.8496 9.4557 33.7543 9.477 C29.3822 9.4946 25.0103 9.5006 20.6382 9.4973 C18.0258 9.4955 15.4135 9.4982 12.8011 9.512 C10.3451 9.5246 7.8896 9.5227 5.4337 9.5096 C4.5315 9.5072 3.6293 9.51 2.7271 9.5182 C1.4969 9.5287 0.2681 9.5207 -0.962 9.5079 C-1.1413 9.5116 -1.1413 9.5116 -2.0486 9.5303 C-3.0491 9.5084 -3.0491 9.5084 -4.7577 9.1337 C-6.0361 7.6433 -6.7359 6.7615 -6.8046 4.7822 C-6.7066 4.3619 -6.6086 3.9417 -6.5077 3.5087 C-6.42 3.0833 -6.3324 2.6579 -6.2421 2.2197 C-5.7577 1.1337 -5.7577 1.1337 -4.9623 0.5742 C-3.3109 -0.0297 -1.735 -0.0076 0 0 Z " fill="#ffffff" transform="translate(61.7576904296875,306.8662872314453)"/>
<path d="M0 0 C0.3305 -0.0038 0.661 -0.0077 1.0015 -0.0116 C2.1024 -0.0219 3.2028 -0.0179 4.3037 -0.014 C5.0957 -0.0183 5.8877 -0.0235 6.6796 -0.0294 C8.8264 -0.0428 10.973 -0.0434 13.1198 -0.0409 C14.914 -0.0398 16.7081 -0.0447 18.5023 -0.0495 C22.7365 -0.0606 26.9705 -0.061 31.2046 -0.055 C35.5678 -0.0489 39.9307 -0.0612 44.2938 -0.0825 C48.0443 -0.1002 51.7946 -0.1062 55.5451 -0.1029 C57.7831 -0.1011 60.021 -0.1037 62.259 -0.1176 C64.3645 -0.1302 66.4695 -0.1282 68.575 -0.1152 C69.3458 -0.1129 70.1165 -0.1156 70.8872 -0.1238 C74.829 -0.1631 77.9418 -0.1746 80.9918 2.6175 C81.0907 2.7237 81.0907 2.7237 81.5911 3.2607 C80.7562 8.5481 80.7562 8.5481 78.5911 10.2607 C77.0727 10.5124 77.0727 10.5124 75.2577 10.5147 C74.9233 10.5178 74.5888 10.5209 74.2443 10.5241 C73.1241 10.5321 72.0045 10.5258 70.8843 10.5195 C70.081 10.5222 69.2777 10.5258 68.4744 10.5301 C66.2925 10.5392 64.1108 10.5357 61.9289 10.5293 C59.6454 10.5243 57.362 10.529 55.0785 10.5321 C51.2426 10.5358 47.4067 10.531 43.5708 10.5214 C39.1378 10.5106 34.705 10.5141 30.272 10.5251 C26.4655 10.5342 22.6592 10.5354 18.8527 10.5302 C16.5795 10.5271 14.3064 10.5267 12.0332 10.5333 C9.895 10.5391 7.757 10.535 5.6187 10.5235 C4.8347 10.5209 4.0506 10.5216 3.2666 10.526 C2.1946 10.5315 1.1234 10.5246 0.0514 10.5147 C-0.5479 10.5139 -1.1472 10.5132 -1.7647 10.5124 C-3.7617 10.2067 -4.8565 9.5348 -6.4089 8.2607 C-6.8074 6.8232 -6.8074 6.8232 -6.7839 5.2607 C-6.7917 4.7451 -6.7994 4.2294 -6.8074 3.6982 C-6.4089 2.2607 -6.4089 2.2607 -5.0971 1.1871 C-3.2094 0.1512 -2.1361 0.0074 0 0 Z " fill="#ffffff" transform="translate(93.40892028808594,334.7393035888672)"/>
<path d="M0 0 C3.3097 2.0927 6.9446 4.8598 8.7031 8.4258 C9.6362 13.3736 10.0941 18.9895 7.3125 23.375 C6.571 24.275 5.8004 25.1519 5 26 C4.6726 26.4125 4.3452 26.825 4.0078 27.25 C1.3271 30.0677 -1.6405 30.4924 -5.375 30.625 C-9.9065 30.609 -12.6298 29.4944 -15.894 26.3989 C-16.6389 25.6275 -17.3222 24.8305 -18 24 C-18.3829 23.5591 -18.7657 23.1183 -19.1602 22.6641 C-21.218 18.5868 -20.8296 12.2872 -19.7275 7.9204 C-18.2647 4.0976 -14.7749 1.7548 -11.2051 0.0691 C-7.4469 -1.4437 -3.7448 -1.7473 0 0 Z M-11 11 C-11.5985 13.7517 -11.6727 16.5148 -10.4922 19.1211 C-9.1406 20.7445 -7.6302 21.2511 -5.5625 21.5 C-3.2671 21.346 -2.1367 20.5236 -0.5625 18.875 C0.5948 17.2371 1.0245 16.4177 0.9062 14.4023 C0.1901 11.9733 -0.5993 10.3833 -2.4375 8.625 C-5.8702 7.2519 -8.8025 7.9084 -11 11 Z " fill="#ffffff" transform="translate(389,353)"/>
<path d="M0 0 C3.4357 2.4491 6.1639 5.7062 7.25 9.8125 C7.8281 13.7267 7.6311 16.7051 5.4375 20.0625 C4.7303 20.9962 4.0028 21.9151 3.25 22.8125 C2.9767 23.1438 2.7034 23.4751 2.4219 23.8164 C0.1276 26.3425 -2.5787 26.9512 -5.8591 27.2061 C-10.5473 27.3866 -13.0553 26.4157 -16.542 23.2986 C-19.5662 20.3308 -21.0392 17.2083 -21.125 12.9375 C-21.1141 8.7034 -19.5077 6.0099 -16.75 2.8125 C-16.4767 2.4825 -16.2034 2.1525 -15.9219 1.8125 C-12.2793 -2.2175 -4.6548 -2.5587 0 0 Z M-10.9609 8.6016 C-11.9417 10.1067 -12.0179 11.0248 -12 12.8125 C-12.0052 13.3281 -12.0103 13.8438 -12.0156 14.375 C-11.6827 16.1767 -11.2374 16.7564 -9.75 17.8125 C-7.7088 18.2396 -5.8006 18.1724 -3.75 17.8125 C-2.3125 16.6875 -2.3125 16.6875 -1.75 14.8125 C-1.9012 12.7639 -2.272 10.8083 -2.75 8.8125 C-3.8724 8.5904 -4.9981 8.3853 -6.125 8.1875 C-6.7515 8.0715 -7.378 7.9555 -8.0234 7.8359 C-9.75 7.8125 -9.75 7.8125 -10.9609 8.6016 Z " fill="#ffffff" transform="translate(239.75,358.1875)"/>
  </svg>
</svg>